<svg xmlns="http://www.w3.org/2000/svg" xmlns:xlink="http://www.w3.org/1999/xlink" width="1587" zoomAndPan="magnify" viewBox="0 0 1190.25 1683.749949" height="2245" preserveAspectRatio="xMidYMid meet" version="1.0"><defs><clipPath id="1814a4e4cd"><path d="M 0 0.40625 L 1189.5 0.40625 L 1189.5 1683.09375 L 0 1683.09375 Z M 0 0.40625 " clip-rule="nonzero"/></clipPath><clipPath id="3ddb2d5b0c"><path d="M 356.941406 840.574219 L 832.890625 840.574219 L 832.890625 842.824219 L 356.941406 842.824219 Z M 356.941406 840.574219 " clip-rule="nonzero"/></clipPath><clipPath id="643d40e3f4"><path d="M 1 5 L 1007.363281 5 L 1007.363281 856.367188 L 1 856.367188 Z M 1 5 " clip-rule="nonzero"/></clipPath><clipPath id="aa7df8fa41"><path d="M 4 0.40625 L 152 0.40625 L 152 95 L 4 95 Z M 4 0.40625 " clip-rule="nonzero"/></clipPath><clipPath id="3f64d4911b"><path d="M 5 0.40625 L 76 0.40625 L 76 44 L 5 44 Z M 5 0.40625 " clip-rule="nonzero"/></clipPath><clipPath id="9fa422e9c8"><path d="M 1 915.296875 L 1007.363281 915.296875 L 1007.363281 1683.09375 L 1 1683.09375 Z M 1 915.296875 " clip-rule="nonzero"/></clipPath><clipPath id="d146b2c775"><path d="M 1 1028 L 852 1028 L 852 1683.09375 L 1 1683.09375 Z M 1 1028 " clip-rule="nonzero"/></clipPath><clipPath id="7b63fe6482"><path d="M 2 1120 L 665 1120 L 665 1683.09375 L 2 1683.09375 Z M 2 1120 " clip-rule="nonzero"/></clipPath><clipPath id="44deee6aff"><path d="M 2 1193 L 584 1193 L 584 1683.09375 L 2 1683.09375 Z M 2 1193 " clip-rule="nonzero"/></clipPath><clipPath id="296211719b"><path d="M 3 1267 L 520 1267 L 520 1683.09375 L 3 1683.09375 Z M 3 1267 " clip-rule="nonzero"/></clipPath><clipPath id="dcd207898e"><path d="M 1 1329 L 467 1329 L 467 1683.09375 L 1 1683.09375 Z M 1 1329 " clip-rule="nonzero"/></clipPath><clipPath id="e352672461"><path d="M 3 1380 L 418 1380 L 418 1683.09375 L 3 1683.09375 Z M 3 1380 " clip-rule="nonzero"/></clipPath><clipPath id="b95f94fa55"><path d="M 3 1433 L 381 1433 L 381 1683.09375 L 3 1683.09375 Z M 3 1433 " clip-rule="nonzero"/></clipPath><clipPath id="55fa362a20"><path d="M 4 1486 L 346 1486 L 346 1683.09375 L 4 1683.09375 Z M 4 1486 " clip-rule="nonzero"/></clipPath><clipPath id="529202c79d"><path d="M 4 1538 L 309 1538 L 309 1683.09375 L 4 1683.09375 Z M 4 1538 " clip-rule="nonzero"/></clipPath><clipPath id="a2ca1b102d"><path d="M 4 1576 L 267 1576 L 267 1683.09375 L 4 1683.09375 Z M 4 1576 " clip-rule="nonzero"/></clipPath><clipPath id="c37ee708a5"><path d="M 4 1626 L 219 1626 L 219 1683.09375 L 4 1683.09375 Z M 4 1626 " clip-rule="nonzero"/></clipPath><clipPath id="797a13cc5d"><path d="M 4 1677 L 152 1677 L 152 1683.09375 L 4 1683.09375 Z M 4 1677 " clip-rule="nonzero"/></clipPath><clipPath id="e2698c03c8"><path d="M 222.273438 840.75 L 1189.5 840.75 L 1189.5 1683.09375 L 222.273438 1683.09375 Z M 222.273438 840.75 " clip-rule="nonzero"/></clipPath><clipPath id="73ec90823b"><path d="M 382 957 L 1189.5 957 L 1189.5 1683.09375 L 382 1683.09375 Z M 382 957 " clip-rule="nonzero"/></clipPath><clipPath id="5f4d719d4b"><path d="M 573 1051 L 1189.5 1051 L 1189.5 1683.09375 L 573 1683.09375 Z M 573 1051 " clip-rule="nonzero"/></clipPath><clipPath id="1f4ae14dba"><path d="M 657 1126 L 1189.5 1126 L 1189.5 1683.09375 L 657 1683.09375 Z M 657 1126 " clip-rule="nonzero"/></clipPath><clipPath id="5a83682a8f"><path d="M 723 1202 L 1189.5 1202 L 1189.5 1683.09375 L 723 1683.09375 Z M 723 1202 " clip-rule="nonzero"/></clipPath><clipPath id="627d57f42e"><path d="M 777 1265 L 1189.5 1265 L 1189.5 1683.09375 L 777 1683.09375 Z M 777 1265 " clip-rule="nonzero"/></clipPath><clipPath id="767c56cffd"><path d="M 827 1318 L 1189.5 1318 L 1189.5 1683.09375 L 827 1683.09375 Z M 827 1318 " clip-rule="nonzero"/></clipPath><clipPath id="3b301966fe"><path d="M 866 1373 L 1189.5 1373 L 1189.5 1683.09375 L 866 1683.09375 Z M 866 1373 " clip-rule="nonzero"/></clipPath><clipPath id="c9f28991a1"><path d="M 902 1428 L 1189.5 1428 L 1189.5 1683.09375 L 902 1683.09375 Z M 902 1428 " clip-rule="nonzero"/></clipPath><clipPath id="b47f8e78f9"><path d="M 939 1481 L 1189.5 1481 L 1189.5 1683.09375 L 939 1683.09375 Z M 939 1481 " clip-rule="nonzero"/></clipPath><clipPath id="88336481d4"><path d="M 983 1520 L 1189.5 1520 L 1189.5 1683.09375 L 983 1683.09375 Z M 983 1520 " clip-rule="nonzero"/></clipPath><clipPath id="e920f4bc3a"><path d="M 1033 1572 L 1189.5 1572 L 1189.5 1683.09375 L 1033 1683.09375 Z M 1033 1572 " clip-rule="nonzero"/></clipPath><clipPath id="bf8770f3c3"><path d="M 1102 1624 L 1189.5 1624 L 1189.5 1683.09375 L 1102 1683.09375 Z M 1102 1624 " clip-rule="nonzero"/></clipPath><clipPath id="315b1b76e2"><path d="M 1179 1676 L 1189.5 1676 L 1189.5 1683.09375 L 1179 1683.09375 Z M 1179 1676 " clip-rule="nonzero"/></clipPath><clipPath id="fc2601b4a2"><path d="M 182.742188 5 L 1189 5 L 1189 856.367188 L 182.742188 856.367188 Z M 182.742188 5 " clip-rule="nonzero"/></clipPath><clipPath id="531e21a8cb"><path d="M 1038 0.40625 L 1186 0.40625 L 1186 95 L 1038 95 Z M 1038 0.40625 " clip-rule="nonzero"/></clipPath><clipPath id="cf7ece6077"><path d="M 1114 0.40625 L 1185 0.40625 L 1185 44 L 1114 44 Z M 1114 0.40625 " clip-rule="nonzero"/></clipPath></defs><g clip-path="url(#1814a4e4cd)"><path fill="#ffffff" d="M 0 0.40625 L 1189.5 0.40625 L 1189.5 1683.09375 L 0 1683.09375 Z M 0 0.40625 " fill-opacity="1" fill-rule="nonzero"/><path fill="#ffffff" d="M 0 0.40625 L 1189.5 0.40625 L 1189.5 1683.09375 L 0 1683.09375 Z M 0 0.40625 " fill-opacity="1" fill-rule="nonzero"/></g><g clip-path="url(#3ddb2d5b0c)"><path fill="#dbeafe" d="M 356.941406 840.671875 L 832.855469 840.671875 L 832.855469 842.855469 L 356.941406 842.855469 Z M 356.941406 840.671875 " fill-opacity="1" fill-rule="nonzero"/></g><g clip-path="url(#643d40e3f4)"><path fill="#dbeafe" d="M 985.136719 5.1875 L 981.722656 7.28125 C 952.382812 22.199219 931.234375 29.945312 918.285156 30.519531 C 886.488281 36.800781 828.691406 45.316406 744.894531 56.070312 C 732.027344 60.503906 710.1875 73.324219 679.378906 94.527344 C 668.570312 99.527344 642.207031 137.492188 600.292969 208.417969 C 572.386719 287.488281 551.578125 355.851562 537.871094 413.507812 C 519.492188 443.554688 506.503906 462.515625 498.898438 470.386719 C 468.257812 504.8125 426.40625 535.71875 373.351562 563.105469 C 292.289062 580.917969 234.230469 595.613281 199.175781 607.1875 C 176.203125 613.433594 152.066406 627.214844 126.765625 648.523438 C 80.761719 684.070312 50.246094 715.769531 35.21875 743.625 C 24.1875 764.859375 12.9375 790.515625 1.46875 820.589844 L 1.285156 856.308594 C 4.492188 842.242188 11.765625 822.566406 23.113281 797.277344 C 38.296875 766.148438 54.378906 738.023438 71.363281 712.902344 L 101.503906 683.800781 L 161.679688 634.230469 C 187.738281 619.761719 263.359375 598.105469 388.550781 569.261719 C 427.972656 546.039062 465.824219 517.164062 502.101562 482.628906 C 523.445312 458.640625 541.070312 431.574219 554.980469 401.433594 C 577.984375 309.847656 594.539062 249.832031 604.648438 221.386719 C 636.871094 163.226562 666.480469 121.414062 693.476562 95.953125 C 699.183594 89.859375 720.214844 79.292969 756.570312 64.257812 C 860.679688 51.871094 923.90625 42.230469 946.253906 35.34375 C 965.679688 27.152344 985.929688 17.140625 1007.011719 5.300781 L 985.136719 5.191406 Z M 985.136719 5.1875 " fill-opacity="1" fill-rule="nonzero"/></g><path fill="#dbeafe" d="M 776.488281 4.113281 L 748 7.855469 C 725.949219 9.960938 714.675781 12.183594 714.179688 14.527344 C 696.730469 21.691406 680.488281 30.75 665.449219 41.707031 C 644.359375 57.007812 625.671875 78.328125 609.386719 105.664062 C 596.8125 125.261719 583.015625 149.363281 567.996094 177.976562 L 513.683594 365.066406 C 498.570312 393.582031 484.476562 415.070312 471.398438 429.535156 C 416.304688 479.765625 375.039062 509.667969 347.609375 519.25 C 197.144531 553.222656 118.285156 577.21875 111.027344 591.242188 C 92.101562 603.878906 66.796875 630.902344 35.105469 672.320312 L 1.992188 718.964844 L 1.871094 742.972656 C 23.902344 701.625 40.375 674.566406 51.292969 661.804688 C 74.621094 637.796875 103.183594 614.828125 136.980469 592.894531 C 148.183594 584.429688 160.972656 578.078125 175.351562 573.832031 C 213.601562 562.316406 275.546875 546.140625 361.1875 525.308594 C 408.640625 497.945312 446.527344 469.488281 474.84375 439.9375 C 490.898438 421.316406 505.519531 401.703125 518.710938 381.101562 L 581.109375 173.417969 C 598.347656 143.414062 613.453125 118.890625 626.433594 99.84375 C 641.542969 69.363281 669.839844 45.558594 711.320312 28.425781 L 730.832031 20.402344 C 770.949219 15.84375 811.117188 10.542969 851.332031 4.5 L 776.488281 4.117188 Z M 776.488281 4.113281 " fill-opacity="1" fill-rule="nonzero"/><path fill="#dbeafe" d="M 643.726562 3.433594 L 639.378906 6.433594 C 620.488281 20.316406 606.027344 33.839844 596 47.003906 C 576.625 73.101562 557.363281 102.222656 538.210938 134.371094 C 526.035156 165.472656 506.324219 232.429688 479.085938 335.242188 C 466.164062 360.683594 449.3125 384.914062 428.527344 407.9375 C 378.925781 451.710938 340.230469 479.046875 312.4375 489.953125 C 210.710938 512.726562 142.886719 531.054688 108.964844 544.941406 C 84.8125 557.011719 49.300781 586.789062 2.429688 634.273438 L 2.339844 651.660156 C 54.492188 597.289062 89.601562 565.589844 107.671875 556.554688 C 116.964844 549 186.546875 530.160156 316.417969 500.027344 C 348.847656 482.34375 369.820312 469.972656 379.347656 462.914062 C 420.046875 436.753906 454.429688 399.542969 482.496094 351.28125 C 486.597656 343.71875 490.496094 335.9375 494.195312 327.941406 C 513.9375 248.28125 529.179688 192.359375 539.925781 160.179688 C 585.265625 69.226562 626.859375 17.015625 664.703125 3.539062 Z M 643.726562 3.433594 " fill-opacity="1" fill-rule="nonzero"/><path fill="#dbeafe" d="M 568.660156 3.046875 L 566.703125 5.257812 C 564.894531 3.1875 544.382812 37.878906 505.164062 109.335938 C 498.769531 127.761719 481.628906 188.636719 453.75 291.957031 C 444.25 313.382812 426.554688 337.953125 400.664062 365.667969 C 376.464844 389.492188 342.054688 414.582031 297.441406 440.933594 L 286.695312 446.09375 C 235.398438 457.308594 188.167969 468.804688 145 480.582031 C 125.28125 486.617188 109.425781 491.910156 97.433594 496.46875 C 41.015625 530.097656 9.46875 552.097656 2.800781 562.464844 L 2.71875 578.441406 C 5.492188 568.945312 38.613281 544.414062 102.078125 504.851562 C 112.464844 500.355469 181.957031 481.082031 310.558594 447.023438 C 362.804688 415.355469 399.429688 386.113281 420.429688 359.292969 C 434.125 343.3125 447.113281 325.367188 459.390625 305.460938 L 468.300781 284.492188 C 484.480469 219.289062 500.601562 160.003906 516.664062 106.640625 C 542.800781 60.273438 564.9375 25.765625 583.082031 3.121094 Z M 568.660156 3.046875 " fill-opacity="1" fill-rule="nonzero"/><path fill="#dbeafe" d="M 505.042969 2.71875 L 501.261719 9.121094 C 491.113281 26.601562 480.378906 47.351562 469.054688 71.371094 L 421.210938 246.644531 C 406.171875 276.941406 384.304688 305.859375 355.605469 333.398438 C 304.621094 373.609375 272.640625 395.972656 259.667969 400.5 C 153.601562 426.085938 89.546875 442.824219 67.503906 450.710938 C 62.300781 452.109375 57.800781 454.265625 54 457.175781 L 3.164062 491.402344 L 3.097656 504.367188 C 38.4375 477.269531 64.375 461.472656 80.910156 456.980469 C 99.507812 450.785156 158.148438 436.265625 256.839844 413.417969 C 284.230469 399.355469 309.046875 384.054688 331.285156 367.523438 L 347.480469 354.894531 C 357.957031 346.320312 367.789062 337.4375 376.976562 328.246094 C 384.632812 321.023438 394.707031 309.554688 407.199219 293.847656 C 410.851562 289.429688 419.914062 272.054688 434.390625 241.71875 C 460.832031 138.742188 476.851562 79.878906 482.445312 65.132812 C 489.765625 51.644531 502.183594 30.863281 519.691406 2.792969 Z M 505.042969 2.71875 " fill-opacity="1" fill-rule="nonzero"/><path fill="#dbeafe" d="M 456.917969 2.46875 L 454.585938 6.828125 C 448.085938 16.429688 442.863281 28.945312 438.917969 44.371094 C 433.953125 59.140625 417.765625 115.558594 390.347656 213.632812 C 385.195312 225.390625 364.269531 252.390625 327.566406 294.632812 C 325.15625 299.480469 291.636719 321.113281 227.019531 359.53125 C 186.746094 366.113281 129.679688 380.519531 55.820312 402.75 C 22.476562 415.554688 4.828125 425.503906 2.882812 432.605469 C 0.960938 436.492188 1.136719 439.839844 3.414062 442.65625 C 24.417969 425.835938 43.535156 415.894531 60.765625 412.835938 C 104.058594 399.269531 160.804688 384.859375 231 369.609375 C 288.671875 337.890625 325.957031 312.699219 342.859375 294.035156 C 377.46875 253.105469 398.632812 223.246094 406.355469 204.457031 C 431.675781 107.570312 446.160156 53.636719 449.804688 42.660156 C 453.640625 29.429688 457.382812 19.230469 461.035156 12.0625 L 466.984375 2.523438 L 456.917969 2.472656 Z M 456.917969 2.46875 " fill-opacity="1" fill-rule="nonzero"/><path fill="#dbeafe" d="M 407.214844 2.214844 L 404.578125 10.929688 L 357.996094 176.066406 C 329.882812 224.320312 311.265625 250.707031 302.144531 255.222656 C 272.230469 281.847656 235.464844 306.851562 191.84375 330.234375 C 83.476562 355.777344 20.773438 372.609375 3.734375 380.734375 L 3.679688 391.648438 C 27.082031 381.332031 91.792969 363.972656 197.820312 339.5625 C 230.199219 324.816406 261.484375 303.53125 291.675781 275.714844 C 313.425781 255.492188 333.253906 233.769531 351.15625 210.546875 L 357.214844 202.78125 L 370.878906 175.15625 C 391.484375 97.101562 407.171875 39.472656 417.9375 2.269531 Z M 407.214844 2.214844 " fill-opacity="1" fill-rule="nonzero"/><path fill="#dbeafe" d="M 368.789062 2.015625 L 365.695312 12.472656 C 357.472656 40.789062 346.382812 81.914062 332.421875 135.851562 C 328.40625 145.003906 311.621094 167.695312 282.058594 203.925781 C 275.332031 210.324219 268.335938 216.597656 261.074219 222.746094 C 230.359375 248.691406 198.703125 269.902344 166.105469 286.378906 L 22.585938 320.460938 C 15.273438 322.300781 9.082031 324.660156 4.007812 327.535156 L 3.957031 337.839844 C 35.898438 328.207031 91.308594 314.398438 170.183594 296.410156 C 194.792969 283.933594 209.183594 276.101562 213.359375 272.914062 C 231.621094 261.609375 248.636719 249.152344 264.414062 235.546875 C 290.027344 214.730469 314.871094 184.839844 338.945312 145.878906 L 380.292969 2.078125 L 368.789062 2.019531 Z M 368.789062 2.015625 " fill-opacity="1" fill-rule="nonzero"/><path fill="#dbeafe" d="M 335.023438 1.84375 L 310.007812 91.078125 C 309.722656 94.375 291.621094 118.429688 255.707031 163.234375 C 236.390625 180.964844 209.324219 200.414062 174.507812 221.578125 L 145 238.792969 C 70.382812 255.300781 23.480469 266.695312 4.289062 272.972656 L 4.226562 284.839844 C 75.105469 265.246094 123.359375 253.253906 148.980469 248.871094 C 173.929688 234.8125 195.480469 221.710938 213.632812 209.566406 L 226.613281 200.640625 C 234.839844 194.808594 242.21875 189.214844 248.75 183.859375 C 266.171875 169.074219 277.921875 157.429688 284 148.921875 C 292.375 137.570312 305.496094 116.523438 323.363281 85.785156 L 345.398438 1.898438 Z M 335.023438 1.84375 " fill-opacity="1" fill-rule="nonzero"/><path fill="#dbeafe" d="M 296.359375 1.644531 L 295.210938 6.109375 C 292.226562 17.78125 289.878906 27.65625 288.167969 35.730469 C 281.652344 48.71875 273.71875 62.34375 264.371094 76.601562 C 244.421875 105.792969 221.863281 129.101562 196.695312 146.527344 C 182.671875 157.699219 156.859375 173.835938 119.257812 194.9375 L 4.550781 222.09375 L 4.496094 232.804688 L 134.496094 199.964844 C 141.820312 198.433594 157.929688 188.425781 182.816406 169.941406 C 201.453125 155.511719 228.570312 131.46875 264.167969 97.816406 C 271.367188 86.917969 283.601562 65.425781 300.863281 33.335938 L 308.914062 1.707031 Z M 296.359375 1.644531 " fill-opacity="1" fill-rule="nonzero"/><path fill="#dbeafe" d="M 254.777344 1.429688 L 253.84375 4.945312 C 251.0625 11.292969 246.375 19.6875 239.785156 30.132812 C 235.910156 36.8125 224.691406 53.066406 206.125 78.894531 C 194.714844 89.960938 174.867188 106.011719 146.589844 127.054688 C 116.03125 147.832031 96.175781 160.304688 87.019531 164.46875 L 84.085938 165.640625 L 4.746094 183.777344 L 4.691406 195.046875 L 88.265625 175.621094 C 133.273438 148.335938 164.527344 128.425781 182.027344 115.902344 C 190.984375 110.105469 199.246094 102.480469 206.808594 93.035156 C 226.050781 70.5625 238.453125 54.472656 244.019531 44.765625 C 258.832031 20.367188 266.277344 5.941406 266.359375 1.488281 Z M 254.777344 1.429688 " fill-opacity="1" fill-rule="nonzero"/><path fill="#dbeafe" d="M 205.726562 1.179688 L 204.746094 2.742188 C 199.367188 11.527344 191.03125 22.457031 179.730469 35.535156 C 170.53125 44.875 152.195312 60.308594 124.722656 81.835938 L 58.34375 121.785156 L 5.007812 133.355469 L 4.949219 144.863281 L 35.210938 140.378906 C 64.867188 130.335938 90.589844 118.554688 112.375 105.042969 C 117.398438 101.800781 122.097656 98.46875 126.476562 95.054688 L 155.605469 69.371094 C 181.558594 46.199219 197.980469 30.5625 204.871094 22.464844 C 210.265625 15.769531 214.648438 8.695312 218.023438 1.242188 Z M 205.726562 1.179688 " fill-opacity="1" fill-rule="nonzero"/><g clip-path="url(#aa7df8fa41)"><path fill="#dbeafe" d="M 133.433594 0.804688 L 127.773438 6.035156 C 104.515625 26.929688 84.039062 43.785156 66.347656 56.605469 C 59.777344 60.863281 51.015625 65.5625 40.0625 70.703125 C 29.125 75.265625 17.527344 79.476562 5.265625 83.328125 C 4.332031 86.992188 4.207031 89.71875 4.898438 91.515625 C 6.464844 93.582031 8.898438 94.550781 12.191406 94.417969 C 16.699219 93.292969 23.015625 91.152344 31.148438 88 C 47.832031 79.414062 60.671875 72.054688 69.664062 65.921875 C 98.207031 47.808594 122.945312 28.652344 143.886719 8.453125 C 146.222656 6.066406 148.613281 3.546875 151.046875 0.898438 Z M 133.433594 0.804688 " fill-opacity="1" fill-rule="nonzero"/></g><g clip-path="url(#3f64d4911b)"><path fill="#dbeafe" d="M 57.90625 0.417969 L 52.417969 4.042969 C 37.671875 13.652344 22.042969 22.761719 5.53125 31.375 L 5.46875 43.792969 C 16.464844 39.105469 31.992188 30.105469 52.054688 16.796875 L 75.671875 0.507812 Z M 57.90625 0.417969 " fill-opacity="1" fill-rule="nonzero"/></g><g clip-path="url(#9fa422e9c8)"><path fill="#dbeafe" d="M 985.136719 1766.476562 L 981.722656 1764.382812 C 952.382812 1749.464844 931.234375 1741.71875 918.285156 1741.144531 C 886.488281 1734.863281 828.691406 1726.347656 744.894531 1715.59375 C 732.027344 1711.160156 710.1875 1698.339844 679.378906 1677.136719 C 668.570312 1672.136719 642.207031 1634.171875 600.292969 1563.246094 C 572.386719 1484.175781 551.578125 1415.8125 537.871094 1358.15625 C 519.492188 1328.109375 506.503906 1309.148438 498.898438 1301.277344 C 468.257812 1266.851562 426.40625 1235.945312 373.351562 1208.558594 C 292.289062 1190.746094 234.230469 1176.050781 199.175781 1164.480469 C 176.203125 1158.230469 152.066406 1144.449219 126.765625 1123.140625 C 80.761719 1087.59375 50.246094 1055.894531 35.21875 1028.039062 C 24.1875 1006.804688 12.9375 981.152344 1.46875 951.074219 L 1.285156 915.355469 C 4.492188 929.421875 11.765625 949.097656 23.113281 974.386719 C 38.296875 1005.515625 54.378906 1033.640625 71.363281 1058.761719 L 101.503906 1087.863281 L 161.679688 1137.433594 C 187.738281 1151.902344 263.359375 1173.558594 388.550781 1202.402344 C 427.972656 1225.625 465.824219 1254.5 502.101562 1289.035156 C 523.445312 1313.023438 541.070312 1340.089844 554.980469 1370.230469 C 577.984375 1461.816406 594.539062 1521.832031 604.648438 1550.277344 C 636.871094 1608.4375 666.480469 1650.25 693.476562 1675.710938 C 699.183594 1681.804688 720.214844 1692.371094 756.570312 1707.40625 C 860.679688 1719.792969 923.90625 1729.433594 946.253906 1736.320312 C 965.679688 1744.511719 985.929688 1754.523438 1007.011719 1766.363281 L 985.136719 1766.472656 Z M 985.136719 1766.476562 " fill-opacity="1" fill-rule="nonzero"/></g><g clip-path="url(#d146b2c775)"><path fill="#dbeafe" d="M 776.488281 1767.550781 L 748 1763.808594 C 725.949219 1761.703125 714.675781 1759.480469 714.179688 1757.136719 C 696.730469 1749.972656 680.488281 1740.914062 665.449219 1729.957031 C 644.359375 1714.65625 625.671875 1693.335938 609.386719 1666.003906 C 596.8125 1646.402344 583.015625 1622.300781 567.996094 1593.6875 L 513.683594 1406.597656 C 498.570312 1378.082031 484.476562 1356.59375 471.398438 1342.128906 C 416.304688 1291.898438 375.039062 1261.996094 347.609375 1252.414062 C 197.144531 1218.445312 118.285156 1194.445312 111.027344 1180.421875 C 92.101562 1167.785156 66.796875 1140.761719 35.105469 1099.34375 L 1.992188 1052.699219 L 1.871094 1028.691406 C 23.902344 1070.039062 40.375 1097.097656 51.292969 1109.859375 C 74.621094 1133.867188 103.183594 1156.835938 136.980469 1178.769531 C 148.183594 1187.234375 160.972656 1193.585938 175.351562 1197.832031 C 213.601562 1209.347656 275.546875 1225.523438 361.1875 1246.355469 C 408.640625 1273.71875 446.527344 1302.175781 474.84375 1331.726562 C 490.898438 1350.351562 505.519531 1369.960938 518.710938 1390.5625 L 581.109375 1598.246094 C 598.347656 1628.25 613.453125 1652.773438 626.433594 1671.820312 C 641.542969 1702.300781 669.839844 1726.105469 711.320312 1743.238281 L 730.832031 1751.261719 C 770.949219 1755.820312 811.117188 1761.121094 851.332031 1767.164062 L 776.488281 1767.546875 Z M 776.488281 1767.550781 " fill-opacity="1" fill-rule="nonzero"/></g><g clip-path="url(#7b63fe6482)"><path fill="#dbeafe" d="M 643.726562 1768.230469 L 639.378906 1765.230469 C 620.488281 1751.347656 606.027344 1737.824219 596 1724.660156 C 576.625 1698.5625 557.363281 1669.441406 538.210938 1637.292969 C 526.035156 1606.191406 506.324219 1539.234375 479.085938 1436.421875 C 466.164062 1410.980469 449.3125 1386.75 428.527344 1363.726562 C 378.925781 1319.953125 340.230469 1292.617188 312.4375 1281.710938 C 210.710938 1258.9375 142.886719 1240.609375 108.964844 1226.722656 C 84.8125 1214.652344 49.300781 1184.875 2.429688 1137.390625 L 2.339844 1120.003906 C 54.492188 1174.375 89.601562 1206.074219 107.671875 1215.109375 C 116.964844 1222.664062 186.546875 1241.503906 316.417969 1271.636719 C 348.847656 1289.320312 369.820312 1301.691406 379.347656 1308.75 C 420.046875 1334.910156 454.429688 1372.121094 482.496094 1420.382812 C 486.597656 1427.945312 490.496094 1435.726562 494.195312 1443.722656 C 513.9375 1523.382812 529.179688 1579.304688 539.925781 1611.484375 C 585.265625 1702.4375 626.859375 1754.648438 664.703125 1768.125 Z M 643.726562 1768.230469 " fill-opacity="1" fill-rule="nonzero"/></g><g clip-path="url(#44deee6aff)"><path fill="#dbeafe" d="M 568.660156 1768.617188 L 566.703125 1766.40625 C 564.894531 1768.476562 544.382812 1733.785156 505.164062 1662.328125 C 498.769531 1643.902344 481.628906 1583.03125 453.75 1479.707031 C 444.25 1458.28125 426.554688 1433.710938 400.664062 1405.996094 C 376.464844 1382.171875 342.054688 1357.082031 297.441406 1330.730469 L 286.695312 1325.570312 C 235.398438 1314.355469 188.167969 1302.859375 145 1291.082031 C 125.28125 1285.046875 109.425781 1279.753906 97.433594 1275.195312 C 41.015625 1241.566406 9.46875 1219.566406 2.800781 1209.199219 L 2.71875 1193.222656 C 5.492188 1202.71875 38.613281 1227.25 102.078125 1266.8125 C 112.464844 1271.308594 181.957031 1290.582031 310.558594 1324.640625 C 362.804688 1356.308594 399.429688 1385.550781 420.429688 1412.371094 C 434.125 1428.351562 447.113281 1446.296875 459.390625 1466.203125 L 468.300781 1487.171875 C 484.480469 1552.375 500.601562 1611.660156 516.664062 1665.023438 C 542.800781 1711.390625 564.9375 1745.898438 583.082031 1768.542969 Z M 568.660156 1768.617188 " fill-opacity="1" fill-rule="nonzero"/></g><g clip-path="url(#296211719b)"><path fill="#dbeafe" d="M 505.042969 1768.945312 L 501.261719 1762.542969 C 491.113281 1745.0625 480.378906 1724.3125 469.054688 1700.292969 L 421.210938 1525.019531 C 406.171875 1494.722656 384.304688 1465.804688 355.605469 1438.265625 C 304.621094 1398.054688 272.640625 1375.691406 259.667969 1371.164062 C 153.601562 1345.578125 89.546875 1328.839844 67.503906 1320.953125 C 62.300781 1319.554688 57.800781 1317.398438 54 1314.488281 L 3.164062 1280.261719 L 3.097656 1267.296875 C 38.4375 1294.394531 64.375 1310.191406 80.910156 1314.683594 C 99.507812 1320.878906 158.148438 1335.398438 256.839844 1358.246094 C 284.230469 1372.308594 309.046875 1387.609375 331.285156 1404.140625 L 347.480469 1416.769531 C 357.957031 1425.34375 367.789062 1434.226562 376.976562 1443.417969 C 384.632812 1450.640625 394.707031 1462.109375 407.199219 1477.816406 C 410.851562 1482.234375 419.914062 1499.609375 434.390625 1529.945312 C 460.832031 1632.921875 476.851562 1691.785156 482.445312 1706.53125 C 489.765625 1720.019531 502.183594 1740.800781 519.691406 1768.871094 Z M 505.042969 1768.945312 " fill-opacity="1" fill-rule="nonzero"/></g><g clip-path="url(#dcd207898e)"><path fill="#dbeafe" d="M 456.917969 1769.195312 L 454.585938 1764.835938 C 448.085938 1755.234375 442.863281 1742.71875 438.917969 1727.292969 C 433.953125 1712.523438 417.765625 1656.105469 390.347656 1558.03125 C 385.195312 1546.273438 364.269531 1519.273438 327.566406 1477.03125 C 325.15625 1472.183594 291.636719 1450.550781 227.019531 1412.132812 C 186.746094 1405.550781 129.679688 1391.144531 55.820312 1368.914062 C 22.476562 1356.109375 4.828125 1346.160156 2.882812 1339.058594 C 0.960938 1335.171875 1.136719 1331.824219 3.414062 1329.007812 C 24.417969 1345.828125 43.535156 1355.769531 60.765625 1358.828125 C 104.058594 1372.394531 160.804688 1386.804688 231 1402.054688 C 288.671875 1433.773438 325.957031 1458.964844 342.859375 1477.628906 C 377.46875 1518.558594 398.632812 1548.417969 406.355469 1567.207031 C 431.675781 1664.09375 446.160156 1718.027344 449.804688 1729.003906 C 453.640625 1742.234375 457.382812 1752.433594 461.035156 1759.601562 L 466.984375 1769.140625 L 456.917969 1769.191406 Z M 456.917969 1769.195312 " fill-opacity="1" fill-rule="nonzero"/></g><g clip-path="url(#e352672461)"><path fill="#dbeafe" d="M 407.214844 1769.449219 L 404.578125 1760.734375 L 357.996094 1595.597656 C 329.882812 1547.34375 311.265625 1520.957031 302.144531 1516.441406 C 272.230469 1489.816406 235.464844 1464.8125 191.84375 1441.429688 C 83.476562 1415.886719 20.773438 1399.054688 3.734375 1390.929688 L 3.679688 1380.015625 C 27.082031 1390.332031 91.792969 1407.691406 197.820312 1432.101562 C 230.199219 1446.847656 261.484375 1468.132812 291.675781 1495.949219 C 313.425781 1516.171875 333.253906 1537.894531 351.15625 1561.117188 L 357.214844 1568.882812 L 370.878906 1596.507812 C 391.484375 1674.5625 407.171875 1732.191406 417.9375 1769.394531 Z M 407.214844 1769.449219 " fill-opacity="1" fill-rule="nonzero"/></g><g clip-path="url(#b95f94fa55)"><path fill="#dbeafe" d="M 368.789062 1769.648438 L 365.695312 1759.191406 C 357.472656 1730.875 346.382812 1689.75 332.421875 1635.8125 C 328.40625 1626.660156 311.621094 1603.96875 282.058594 1567.738281 C 275.332031 1561.339844 268.335938 1555.066406 261.074219 1548.917969 C 230.359375 1522.972656 198.703125 1501.761719 166.105469 1485.285156 L 22.585938 1451.203125 C 15.273438 1449.363281 9.082031 1447.003906 4.007812 1444.128906 L 3.957031 1433.824219 C 35.898438 1443.457031 91.308594 1457.265625 170.183594 1475.253906 C 194.792969 1487.730469 209.183594 1495.5625 213.359375 1498.75 C 231.621094 1510.054688 248.636719 1522.511719 264.414062 1536.117188 C 290.027344 1556.933594 314.871094 1586.824219 338.945312 1625.785156 L 380.292969 1769.589844 L 368.789062 1769.644531 Z M 368.789062 1769.648438 " fill-opacity="1" fill-rule="nonzero"/></g><g clip-path="url(#55fa362a20)"><path fill="#dbeafe" d="M 335.023438 1769.820312 L 310.007812 1680.585938 C 309.722656 1677.289062 291.621094 1653.234375 255.707031 1608.429688 C 236.390625 1590.699219 209.324219 1571.25 174.507812 1550.085938 L 145 1532.871094 C 70.382812 1516.363281 23.480469 1504.96875 4.289062 1498.691406 L 4.226562 1486.824219 C 75.105469 1506.417969 123.359375 1518.410156 148.980469 1522.792969 C 173.929688 1536.851562 195.480469 1549.953125 213.632812 1562.097656 L 226.613281 1571.023438 C 234.839844 1576.855469 242.21875 1582.449219 248.75 1587.804688 C 266.171875 1602.589844 277.921875 1614.234375 284 1622.742188 C 292.375 1634.09375 305.496094 1655.140625 323.363281 1685.878906 L 345.398438 1769.765625 Z M 335.023438 1769.820312 " fill-opacity="1" fill-rule="nonzero"/></g><g clip-path="url(#529202c79d)"><path fill="#dbeafe" d="M 296.359375 1770.019531 L 295.210938 1765.554688 C 292.226562 1753.882812 289.878906 1744.007812 288.167969 1735.933594 C 281.652344 1722.945312 273.71875 1709.320312 264.371094 1695.0625 C 244.421875 1665.871094 221.863281 1642.5625 196.695312 1625.136719 C 182.671875 1613.964844 156.859375 1597.828125 119.257812 1576.726562 L 4.550781 1549.574219 L 4.496094 1538.859375 L 134.496094 1571.699219 C 141.820312 1573.230469 157.929688 1583.238281 182.816406 1601.722656 C 201.453125 1616.152344 228.570312 1640.195312 264.167969 1673.847656 C 271.367188 1684.746094 283.601562 1706.238281 300.863281 1738.328125 L 308.914062 1769.957031 Z M 296.359375 1770.019531 " fill-opacity="1" fill-rule="nonzero"/></g><g clip-path="url(#a2ca1b102d)"><path fill="#dbeafe" d="M 254.777344 1770.234375 L 253.84375 1766.71875 C 251.0625 1760.371094 246.375 1751.976562 239.785156 1741.53125 C 235.910156 1734.851562 224.691406 1718.597656 206.125 1692.769531 C 194.714844 1681.703125 174.867188 1665.652344 146.589844 1644.609375 C 116.03125 1623.832031 96.175781 1611.359375 87.019531 1607.195312 L 84.085938 1606.023438 L 4.746094 1587.886719 L 4.691406 1576.617188 L 88.265625 1596.042969 C 133.273438 1623.328125 164.527344 1643.238281 182.027344 1655.761719 C 190.984375 1661.558594 199.246094 1669.183594 206.808594 1678.628906 C 226.050781 1701.101562 238.453125 1717.191406 244.019531 1726.898438 C 258.832031 1751.296875 266.277344 1765.722656 266.359375 1770.175781 Z M 254.777344 1770.234375 " fill-opacity="1" fill-rule="nonzero"/></g><g clip-path="url(#c37ee708a5)"><path fill="#dbeafe" d="M 205.726562 1770.484375 L 204.746094 1768.921875 C 199.367188 1760.136719 191.03125 1749.207031 179.730469 1736.128906 C 170.53125 1726.789062 152.195312 1711.355469 124.722656 1689.828125 L 58.34375 1649.878906 L 5.007812 1638.308594 L 4.949219 1626.800781 L 35.210938 1631.285156 C 64.867188 1641.328125 90.589844 1653.109375 112.375 1666.621094 C 117.398438 1669.863281 122.097656 1673.195312 126.476562 1676.609375 L 155.605469 1702.292969 C 181.558594 1725.464844 197.980469 1741.101562 204.871094 1749.199219 C 210.265625 1755.894531 214.648438 1762.96875 218.023438 1770.421875 Z M 205.726562 1770.484375 " fill-opacity="1" fill-rule="nonzero"/></g><g clip-path="url(#797a13cc5d)"><path fill="#dbeafe" d="M 133.433594 1770.859375 L 127.773438 1765.628906 C 104.515625 1744.734375 84.039062 1727.878906 66.347656 1715.058594 C 59.777344 1710.800781 51.015625 1706.101562 40.0625 1700.964844 C 29.125 1696.398438 17.527344 1692.1875 5.265625 1688.335938 C 4.332031 1684.671875 4.207031 1681.945312 4.898438 1680.148438 C 6.464844 1678.082031 8.898438 1677.113281 12.191406 1677.246094 C 16.699219 1678.371094 23.015625 1680.511719 31.148438 1683.664062 C 47.832031 1692.25 60.671875 1699.609375 69.664062 1705.742188 C 98.207031 1723.855469 122.945312 1743.011719 143.886719 1763.210938 C 146.222656 1765.597656 148.613281 1768.117188 151.046875 1770.769531 Z M 133.433594 1770.859375 " fill-opacity="1" fill-rule="nonzero"/></g><g clip-path="url(#e2698c03c8)"><path fill="#dbeafe" d="M 244.460938 1715.78125 L 247.96875 1713.628906 C 278.140625 1698.289062 299.882812 1690.324219 313.199219 1689.734375 C 345.890625 1683.277344 405.316406 1674.519531 491.476562 1663.464844 C 504.707031 1658.902344 527.160156 1645.722656 558.839844 1623.921875 C 569.953125 1618.78125 597.058594 1579.746094 640.15625 1506.820312 C 668.847656 1425.519531 690.242188 1355.230469 704.335938 1295.949219 C 723.230469 1265.054688 736.589844 1245.5625 744.40625 1237.46875 C 775.914062 1202.074219 818.941406 1170.296875 873.492188 1142.136719 C 956.839844 1123.820312 1016.535156 1108.710938 1052.582031 1096.8125 C 1076.199219 1090.386719 1101.019531 1076.21875 1127.03125 1054.308594 C 1174.332031 1017.761719 1205.707031 985.167969 1221.15625 956.527344 C 1232.5 934.695312 1244.066406 908.316406 1255.855469 877.394531 L 1256.046875 840.664062 C 1252.75 855.128906 1245.269531 875.363281 1233.605469 901.363281 C 1217.996094 933.367188 1201.457031 962.285156 1183.996094 988.113281 L 1153.003906 1018.039062 L 1091.128906 1069.007812 C 1064.339844 1083.882812 986.585938 1106.148438 857.867188 1135.804688 C 817.332031 1159.679688 778.414062 1189.375 741.117188 1224.882812 C 719.171875 1249.546875 701.046875 1277.371094 686.742188 1308.363281 C 663.09375 1402.53125 646.070312 1464.238281 635.675781 1493.488281 C 602.542969 1553.289062 572.097656 1596.277344 544.34375 1622.457031 C 538.476562 1628.722656 516.851562 1639.585938 479.472656 1655.046875 C 372.429688 1667.785156 307.417969 1677.691406 284.441406 1684.773438 C 264.46875 1693.195312 243.644531 1703.492188 221.96875 1715.664062 L 244.460938 1715.777344 Z M 244.460938 1715.78125 " fill-opacity="1" fill-rule="nonzero"/></g><g clip-path="url(#73ec90823b)"><path fill="#dbeafe" d="M 458.992188 1716.882812 L 488.28125 1713.039062 C 510.957031 1710.875 522.546875 1708.585938 523.054688 1706.179688 C 540.996094 1698.8125 557.699219 1689.496094 573.164062 1678.234375 C 594.84375 1662.5 614.058594 1640.578125 630.804688 1612.472656 C 643.734375 1592.324219 657.921875 1567.539062 673.363281 1538.121094 L 729.207031 1345.757812 C 744.742188 1316.4375 759.234375 1294.34375 772.679688 1279.46875 C 829.332031 1227.824219 871.757812 1197.078125 899.960938 1187.226562 C 1054.664062 1152.300781 1135.75 1127.625 1143.214844 1113.207031 C 1162.667969 1100.214844 1188.691406 1072.425781 1221.273438 1029.84375 L 1255.320312 981.882812 L 1255.445312 957.195312 C 1232.792969 999.714844 1215.855469 1027.53125 1204.628906 1040.65625 C 1180.644531 1065.339844 1151.277344 1088.957031 1116.527344 1111.503906 C 1105.011719 1120.207031 1091.859375 1126.742188 1077.074219 1131.105469 C 1037.746094 1142.949219 974.054688 1159.578125 886.003906 1181 C 837.210938 1209.132812 798.253906 1238.390625 769.140625 1268.777344 C 752.632812 1287.921875 737.597656 1308.089844 724.035156 1329.273438 L 659.878906 1542.808594 C 642.15625 1573.65625 626.621094 1598.871094 613.277344 1618.457031 C 597.742188 1649.796875 568.648438 1674.273438 525.996094 1691.886719 L 505.9375 1700.136719 C 464.683594 1704.824219 423.386719 1710.273438 382.039062 1716.488281 Z M 458.992188 1716.882812 " fill-opacity="1" fill-rule="nonzero"/></g><g clip-path="url(#5f4d719d4b)"><path fill="#dbeafe" d="M 595.496094 1717.585938 L 599.96875 1714.5 C 619.390625 1700.222656 634.257812 1686.320312 644.570312 1672.785156 C 664.488281 1645.953125 684.292969 1616.011719 703.988281 1582.957031 C 716.507812 1550.976562 736.769531 1482.132812 764.777344 1376.421875 C 778.0625 1350.265625 795.390625 1325.351562 816.761719 1301.675781 C 867.761719 1256.671875 907.546875 1228.5625 936.125 1217.351562 C 1040.71875 1193.933594 1110.457031 1175.089844 1145.332031 1160.8125 C 1170.167969 1148.398438 1206.679688 1117.78125 1254.871094 1068.964844 L 1254.964844 1051.085938 C 1201.34375 1106.988281 1165.242188 1139.582031 1146.660156 1148.871094 C 1137.105469 1156.636719 1065.5625 1176.011719 932.03125 1206.992188 C 898.691406 1225.175781 877.121094 1237.894531 867.328125 1245.148438 C 825.484375 1272.050781 790.128906 1310.3125 761.269531 1359.929688 C 757.054688 1367.707031 753.046875 1375.707031 749.246094 1383.929688 C 728.945312 1465.835938 713.269531 1523.332031 702.222656 1556.417969 C 655.605469 1649.9375 612.839844 1703.621094 573.925781 1717.476562 Z M 595.496094 1717.585938 " fill-opacity="1" fill-rule="nonzero"/></g><g clip-path="url(#1f4ae14dba)"><path fill="#dbeafe" d="M 672.679688 1717.984375 L 674.691406 1715.707031 C 676.550781 1717.839844 697.640625 1682.167969 737.964844 1608.695312 C 744.539062 1589.753906 762.164062 1527.164062 790.832031 1420.925781 C 800.597656 1398.898438 818.792969 1373.632812 845.410156 1345.136719 C 870.292969 1320.644531 905.671875 1294.847656 951.542969 1267.75 L 962.589844 1262.445312 C 1015.335938 1250.914062 1063.898438 1239.097656 1108.28125 1226.984375 C 1128.558594 1220.78125 1144.859375 1215.335938 1157.1875 1210.652344 C 1215.199219 1176.074219 1247.632812 1153.457031 1254.492188 1142.792969 L 1254.574219 1126.367188 C 1251.722656 1136.128906 1217.667969 1161.351562 1152.410156 1202.035156 C 1141.734375 1206.652344 1070.28125 1226.472656 938.058594 1261.488281 C 884.335938 1294.050781 846.679688 1324.117188 825.089844 1351.695312 C 811.007812 1368.125 797.652344 1386.574219 785.027344 1407.042969 L 775.867188 1428.605469 C 759.230469 1495.644531 742.65625 1556.597656 726.140625 1611.46875 C 699.269531 1659.144531 676.503906 1694.621094 657.847656 1717.90625 L 672.679688 1717.980469 Z M 672.679688 1717.984375 " fill-opacity="1" fill-rule="nonzero"/></g><g clip-path="url(#5a83682a8f)"><path fill="#dbeafe" d="M 738.089844 1718.320312 L 741.976562 1711.738281 C 752.410156 1693.761719 763.449219 1672.429688 775.089844 1647.734375 L 824.285156 1467.515625 C 839.746094 1436.367188 862.234375 1406.632812 891.742188 1378.316406 C 944.164062 1336.976562 977.042969 1313.976562 990.382812 1309.324219 C 1099.4375 1283.015625 1165.296875 1265.808594 1187.960938 1257.699219 C 1193.3125 1256.261719 1197.941406 1254.042969 1201.84375 1251.050781 L 1254.117188 1215.859375 L 1254.183594 1202.53125 C 1217.847656 1230.394531 1191.179688 1246.632812 1174.179688 1251.253906 C 1155.058594 1257.621094 1094.761719 1272.550781 993.289062 1296.042969 C 965.125 1310.503906 939.613281 1326.234375 916.746094 1343.230469 L 900.09375 1356.21875 C 889.320312 1365.03125 879.214844 1374.164062 869.765625 1383.617188 C 861.894531 1391.042969 851.535156 1402.832031 838.691406 1418.984375 C 834.9375 1423.527344 825.617188 1441.390625 810.734375 1472.582031 C 783.546875 1578.464844 767.074219 1638.984375 761.324219 1654.144531 C 753.796875 1668.015625 741.03125 1689.382812 723.027344 1718.242188 Z M 738.089844 1718.320312 " fill-opacity="1" fill-rule="nonzero"/></g><g clip-path="url(#627d57f42e)"><path fill="#dbeafe" d="M 787.570312 1718.574219 L 789.96875 1714.09375 C 796.652344 1704.222656 802.019531 1691.355469 806.078125 1675.492188 C 811.183594 1660.308594 827.828125 1602.296875 856.019531 1501.460938 C 861.316406 1489.367188 882.832031 1461.609375 920.566406 1418.179688 C 923.046875 1413.191406 957.511719 1390.949219 1023.953125 1351.445312 C 1065.359375 1344.679688 1124.03125 1329.867188 1199.972656 1307.011719 C 1234.257812 1293.847656 1252.402344 1283.613281 1254.40625 1276.3125 C 1256.382812 1272.316406 1256.199219 1268.875 1253.855469 1265.980469 C 1232.265625 1283.277344 1212.609375 1293.496094 1194.890625 1296.640625 C 1150.378906 1310.59375 1092.03125 1325.40625 1019.859375 1341.085938 C 960.5625 1373.699219 922.222656 1399.601562 904.84375 1418.792969 C 869.261719 1460.875 847.5 1491.574219 839.558594 1510.894531 C 813.523438 1610.511719 798.632812 1665.964844 794.886719 1677.253906 C 790.941406 1690.855469 787.09375 1701.339844 783.339844 1708.710938 L 777.21875 1718.523438 Z M 787.570312 1718.574219 " fill-opacity="1" fill-rule="nonzero"/></g><g clip-path="url(#767c56cffd)"><path fill="#dbeafe" d="M 838.675781 1718.835938 L 841.386719 1709.875 L 889.285156 1540.085938 C 918.1875 1490.472656 937.328125 1463.34375 946.707031 1458.695312 C 977.464844 1431.324219 1015.265625 1405.613281 1060.117188 1381.570312 C 1171.539062 1355.308594 1236.007812 1338 1253.53125 1329.648438 L 1253.585938 1318.425781 C 1229.523438 1329.03125 1162.988281 1346.882812 1053.972656 1371.980469 C 1020.683594 1387.144531 988.515625 1409.027344 957.46875 1437.628906 C 935.105469 1458.421875 914.722656 1480.753906 896.316406 1504.632812 L 890.085938 1512.617188 L 876.035156 1541.019531 C 854.851562 1621.277344 838.722656 1680.53125 827.648438 1718.78125 Z M 838.675781 1718.835938 " fill-opacity="1" fill-rule="nonzero"/></g><g clip-path="url(#3b301966fe)"><path fill="#dbeafe" d="M 878.183594 1719.039062 L 881.363281 1708.292969 C 889.816406 1679.179688 901.222656 1636.890625 915.578125 1581.433594 C 919.703125 1572.023438 936.964844 1548.691406 967.359375 1511.441406 C 974.277344 1504.859375 981.46875 1498.410156 988.9375 1492.089844 C 1020.515625 1465.410156 1053.066406 1443.601562 1086.582031 1426.664062 L 1234.148438 1391.621094 C 1241.664062 1389.726562 1248.03125 1387.300781 1253.25 1384.347656 L 1253.304688 1373.753906 C 1220.457031 1383.65625 1163.488281 1397.855469 1082.386719 1416.351562 C 1057.085938 1429.179688 1042.289062 1437.230469 1037.996094 1440.507812 C 1019.222656 1452.128906 1001.722656 1464.9375 985.5 1478.929688 C 959.167969 1500.332031 933.621094 1531.0625 908.871094 1571.125 L 866.355469 1718.980469 Z M 878.183594 1719.039062 " fill-opacity="1" fill-rule="nonzero"/></g><g clip-path="url(#c9f28991a1)"><path fill="#dbeafe" d="M 912.902344 1719.21875 L 938.625 1627.46875 C 938.917969 1624.078125 957.527344 1599.347656 994.453125 1553.28125 C 1014.3125 1535.046875 1042.144531 1515.050781 1077.945312 1493.292969 L 1108.28125 1475.589844 C 1185 1458.617188 1233.226562 1446.902344 1252.960938 1440.449219 L 1253.023438 1428.246094 C 1180.144531 1448.390625 1130.535156 1460.71875 1104.1875 1465.230469 C 1078.535156 1479.683594 1056.378906 1493.152344 1037.710938 1505.640625 L 1024.367188 1514.820312 C 1015.910156 1520.816406 1008.320312 1526.566406 1001.609375 1532.074219 C 983.695312 1547.273438 971.613281 1559.25 965.363281 1567.996094 C 956.75 1579.667969 943.257812 1601.304688 924.890625 1632.910156 L 902.230469 1719.164062 Z M 912.902344 1719.21875 " fill-opacity="1" fill-rule="nonzero"/></g><g clip-path="url(#b47f8e78f9)"><path fill="#dbeafe" d="M 952.65625 1719.425781 L 953.835938 1714.835938 C 956.90625 1702.832031 959.320312 1692.679688 961.078125 1684.375 C 967.777344 1671.023438 975.933594 1657.015625 985.546875 1642.351562 C 1006.058594 1612.339844 1029.253906 1588.375 1055.128906 1570.457031 C 1069.550781 1558.96875 1096.089844 1542.378906 1134.75 1520.683594 L 1252.691406 1492.761719 L 1252.746094 1481.746094 L 1119.082031 1515.511719 C 1111.550781 1517.085938 1094.988281 1527.378906 1069.398438 1546.382812 C 1050.234375 1561.222656 1022.355469 1585.941406 985.753906 1620.539062 C 978.351562 1631.746094 965.773438 1653.847656 948.027344 1686.839844 L 939.746094 1719.359375 L 952.65625 1719.421875 Z M 952.65625 1719.425781 " fill-opacity="1" fill-rule="nonzero"/></g><g clip-path="url(#88336481d4)"><path fill="#dbeafe" d="M 995.410156 1719.644531 L 996.371094 1716.027344 C 999.230469 1709.503906 1004.046875 1700.871094 1010.828125 1690.132812 C 1014.808594 1683.265625 1026.34375 1666.550781 1045.4375 1639.996094 C 1057.167969 1628.621094 1077.570312 1612.113281 1106.648438 1590.480469 C 1138.066406 1569.113281 1158.480469 1556.292969 1167.898438 1552.011719 L 1170.914062 1550.804688 L 1252.488281 1532.160156 L 1252.546875 1520.570312 L 1166.613281 1540.542969 C 1120.339844 1568.597656 1088.207031 1589.066406 1070.210938 1601.945312 C 1061 1607.90625 1052.507812 1615.742188 1044.730469 1625.457031 C 1024.945312 1648.5625 1012.195312 1665.109375 1006.472656 1675.085938 C 991.242188 1700.175781 983.585938 1715.007812 983.5 1719.582031 Z M 995.410156 1719.644531 " fill-opacity="1" fill-rule="nonzero"/></g><g clip-path="url(#e920f4bc3a)"><path fill="#dbeafe" d="M 1045.84375 1719.902344 L 1046.851562 1718.292969 C 1052.382812 1709.265625 1060.953125 1698.023438 1072.570312 1684.578125 C 1082.03125 1674.976562 1100.882812 1659.105469 1129.128906 1636.972656 L 1197.378906 1595.898438 L 1252.222656 1584 L 1252.28125 1572.167969 L 1221.167969 1576.777344 C 1190.671875 1587.105469 1164.226562 1599.214844 1141.828125 1613.109375 C 1136.664062 1616.445312 1131.832031 1619.867188 1127.328125 1623.378906 L 1097.378906 1649.789062 C 1070.695312 1673.613281 1053.808594 1689.691406 1046.722656 1698.015625 C 1041.175781 1704.898438 1036.671875 1712.175781 1033.199219 1719.839844 Z M 1045.84375 1719.902344 " fill-opacity="1" fill-rule="nonzero"/></g><g clip-path="url(#bf8770f3c3)"><path fill="#dbeafe" d="M 1120.171875 1720.285156 L 1125.992188 1714.910156 C 1149.90625 1693.425781 1170.960938 1676.097656 1189.152344 1662.914062 C 1195.90625 1658.535156 1204.914062 1653.703125 1216.179688 1648.421875 C 1227.421875 1643.726562 1239.347656 1639.398438 1251.957031 1635.4375 C 1252.917969 1631.671875 1253.042969 1628.867188 1252.335938 1627.019531 C 1250.722656 1624.894531 1248.222656 1623.898438 1244.835938 1624.035156 C 1240.199219 1625.195312 1233.703125 1627.394531 1225.34375 1630.632812 C 1208.1875 1639.460938 1194.984375 1647.027344 1185.738281 1653.332031 C 1156.394531 1671.960938 1130.957031 1691.65625 1109.429688 1712.421875 C 1107.023438 1714.878906 1104.566406 1717.46875 1102.0625 1720.191406 Z M 1120.171875 1720.285156 " fill-opacity="1" fill-rule="nonzero"/></g><g clip-path="url(#315b1b76e2)"><path fill="#dbeafe" d="M 1197.832031 1720.6875 L 1203.472656 1716.957031 C 1218.636719 1707.078125 1234.707031 1697.710938 1251.679688 1688.855469 L 1251.746094 1676.085938 C 1240.441406 1680.90625 1224.476562 1690.160156 1203.847656 1703.84375 L 1179.5625 1720.59375 Z M 1197.832031 1720.6875 " fill-opacity="1" fill-rule="nonzero"/></g><g clip-path="url(#fc2601b4a2)"><path fill="#dbeafe" d="M 204.652344 5.1875 L 208.066406 7.28125 C 237.40625 22.199219 258.554688 29.945312 271.507812 30.519531 C 303.300781 36.800781 361.097656 45.316406 444.894531 56.070312 C 457.761719 60.503906 479.601562 73.324219 510.414062 94.527344 C 521.222656 99.527344 547.582031 137.492188 589.496094 208.417969 C 617.402344 287.488281 638.210938 355.851562 651.917969 413.507812 C 670.296875 443.554688 683.289062 462.515625 690.890625 470.386719 C 721.535156 504.8125 763.382812 535.71875 816.4375 563.105469 C 897.5 580.917969 955.558594 595.613281 990.617188 607.1875 C 1013.589844 613.433594 1037.726562 627.214844 1063.023438 648.523438 C 1109.03125 684.070312 1139.546875 715.769531 1154.570312 743.625 C 1165.601562 764.859375 1176.851562 790.515625 1188.320312 820.589844 L 1188.503906 856.308594 C 1185.296875 842.242188 1178.023438 822.566406 1166.675781 797.277344 C 1151.496094 766.148438 1135.410156 738.023438 1118.425781 712.902344 L 1088.285156 683.800781 L 1028.109375 634.230469 C 1002.054688 619.761719 926.429688 598.105469 801.238281 569.261719 C 761.816406 546.039062 723.964844 517.164062 687.691406 482.628906 C 666.347656 458.640625 648.71875 431.574219 634.808594 401.433594 C 611.808594 309.847656 595.25 249.832031 585.140625 221.386719 C 552.917969 163.226562 523.308594 121.414062 496.3125 95.953125 C 490.605469 89.859375 469.574219 79.292969 433.21875 64.257812 C 329.109375 51.871094 265.882812 42.230469 243.535156 35.34375 C 224.109375 27.152344 203.859375 17.140625 182.777344 5.300781 L 204.652344 5.191406 Z M 204.652344 5.1875 " fill-opacity="1" fill-rule="nonzero"/></g><path fill="#dbeafe" d="M 413.304688 4.113281 L 441.789062 7.855469 C 463.839844 9.960938 475.113281 12.183594 475.609375 14.527344 C 493.058594 21.691406 509.304688 30.75 524.339844 41.707031 C 545.429688 57.007812 564.117188 78.328125 580.402344 105.664062 C 592.980469 125.261719 606.777344 149.363281 621.796875 177.976562 L 676.109375 365.066406 C 691.21875 393.582031 705.3125 415.070312 718.390625 429.535156 C 773.484375 479.765625 814.75 509.667969 842.179688 519.25 C 992.644531 553.222656 1071.503906 577.21875 1078.765625 591.242188 C 1097.6875 603.878906 1122.992188 630.902344 1154.683594 672.320312 L 1187.796875 718.964844 L 1187.917969 742.972656 C 1165.890625 701.625 1149.414062 674.566406 1138.496094 661.804688 C 1115.167969 637.796875 1086.605469 614.828125 1052.808594 592.894531 C 1041.609375 584.429688 1028.816406 578.078125 1014.4375 573.832031 C 976.1875 562.316406 914.246094 546.140625 828.605469 525.308594 C 781.148438 497.945312 743.261719 469.488281 714.949219 439.9375 C 698.894531 421.316406 684.269531 401.703125 671.078125 381.101562 L 608.679688 173.417969 C 591.445312 143.414062 576.335938 118.890625 563.355469 99.84375 C 548.246094 69.363281 519.953125 45.558594 478.46875 28.425781 L 458.960938 20.402344 C 418.839844 15.84375 378.671875 10.542969 338.457031 4.5 L 413.304688 4.117188 Z M 413.304688 4.113281 " fill-opacity="1" fill-rule="nonzero"/><path fill="#dbeafe" d="M 546.0625 3.433594 L 550.410156 6.433594 C 569.300781 20.316406 583.761719 33.839844 593.789062 47.003906 C 613.164062 73.101562 632.425781 102.222656 651.582031 134.371094 C 663.757812 165.472656 683.464844 232.429688 710.703125 335.242188 C 723.625 360.683594 740.476562 384.914062 761.265625 407.9375 C 810.863281 451.710938 849.558594 479.046875 877.351562 489.953125 C 979.078125 512.726562 1046.902344 531.054688 1080.824219 544.941406 C 1104.980469 557.011719 1140.492188 586.789062 1187.359375 634.273438 L 1187.449219 651.660156 C 1135.296875 597.289062 1100.1875 565.589844 1082.117188 556.554688 C 1072.824219 549 1003.242188 530.160156 873.371094 500.027344 C 840.945312 482.34375 819.96875 469.972656 810.441406 462.914062 C 769.746094 436.753906 735.359375 399.542969 707.292969 351.28125 C 703.191406 343.71875 699.292969 335.9375 695.597656 327.941406 C 675.855469 248.28125 660.609375 192.359375 649.863281 160.179688 C 604.523438 69.226562 562.929688 17.015625 525.085938 3.539062 Z M 546.0625 3.433594 " fill-opacity="1" fill-rule="nonzero"/><path fill="#dbeafe" d="M 621.132812 3.046875 L 623.089844 5.257812 C 624.894531 3.1875 645.410156 37.878906 684.625 109.335938 C 691.023438 127.761719 708.160156 188.636719 736.042969 291.957031 C 745.542969 313.382812 763.238281 337.953125 789.125 365.667969 C 813.328125 389.492188 847.734375 414.582031 892.347656 440.933594 L 903.09375 446.09375 C 954.390625 457.308594 1001.625 468.804688 1044.789062 480.582031 C 1064.507812 486.617188 1080.363281 491.910156 1092.355469 496.46875 C 1148.773438 530.097656 1180.320312 552.097656 1186.992188 562.464844 L 1187.074219 578.441406 C 1184.296875 568.945312 1151.175781 544.414062 1087.710938 504.851562 C 1077.324219 500.355469 1007.832031 481.082031 879.234375 447.023438 C 826.984375 415.355469 790.363281 386.113281 769.363281 359.292969 C 755.664062 343.3125 742.675781 325.367188 730.398438 305.460938 L 721.492188 284.492188 C 705.308594 219.289062 689.1875 160.003906 673.125 106.640625 C 646.992188 60.273438 624.851562 25.765625 606.707031 3.121094 Z M 621.132812 3.046875 " fill-opacity="1" fill-rule="nonzero"/><path fill="#dbeafe" d="M 684.75 2.71875 L 688.527344 9.121094 C 698.675781 26.601562 709.410156 47.351562 720.734375 71.371094 L 768.582031 246.644531 C 783.617188 276.941406 805.488281 305.859375 834.183594 333.398438 C 885.171875 373.609375 917.148438 395.972656 930.121094 400.5 C 1036.1875 426.085938 1100.242188 442.824219 1122.285156 450.710938 C 1127.488281 452.109375 1131.988281 454.265625 1135.789062 457.175781 L 1186.625 491.402344 L 1186.691406 504.367188 C 1151.351562 477.269531 1125.414062 461.472656 1108.878906 456.980469 C 1090.28125 450.785156 1031.640625 436.265625 932.949219 413.417969 C 905.558594 399.355469 880.742188 384.054688 858.503906 367.523438 L 842.308594 354.894531 C 831.832031 346.320312 822.003906 337.4375 812.816406 328.246094 C 805.160156 321.023438 795.085938 309.554688 782.589844 293.847656 C 778.9375 289.429688 769.875 272.054688 755.402344 241.71875 C 728.957031 138.742188 712.9375 79.878906 707.34375 65.132812 C 700.023438 51.644531 687.609375 30.863281 670.097656 2.792969 Z M 684.75 2.71875 " fill-opacity="1" fill-rule="nonzero"/><path fill="#dbeafe" d="M 732.871094 2.46875 L 735.203125 6.828125 C 741.703125 16.429688 746.925781 28.945312 750.871094 44.371094 C 755.835938 59.140625 772.027344 115.558594 799.445312 213.632812 C 804.59375 225.390625 825.519531 252.390625 862.222656 294.632812 C 864.636719 299.480469 898.152344 321.113281 962.773438 359.53125 C 1003.042969 366.113281 1060.109375 380.519531 1133.96875 402.75 C 1167.3125 415.554688 1184.960938 425.503906 1186.910156 432.605469 C 1188.832031 436.492188 1188.652344 439.839844 1186.375 442.65625 C 1165.371094 425.835938 1146.257812 415.894531 1129.023438 412.835938 C 1085.730469 399.269531 1028.988281 384.859375 958.789062 369.609375 C 901.121094 337.890625 863.832031 312.699219 846.929688 294.035156 C 812.324219 253.105469 791.15625 223.246094 783.4375 204.457031 C 758.113281 107.570312 743.628906 53.636719 739.984375 42.660156 C 736.148438 29.429688 732.40625 19.230469 728.757812 12.0625 L 722.804688 2.523438 L 732.871094 2.472656 Z M 732.871094 2.46875 " fill-opacity="1" fill-rule="nonzero"/><path fill="#dbeafe" d="M 782.574219 2.214844 L 785.214844 10.929688 L 831.796875 176.066406 C 859.90625 224.320312 878.523438 250.707031 887.644531 255.222656 C 917.558594 281.847656 954.324219 306.851562 997.945312 330.234375 C 1106.3125 355.777344 1169.015625 372.609375 1186.054688 380.734375 L 1186.113281 391.648438 C 1162.707031 381.332031 1097.996094 363.972656 991.972656 339.5625 C 959.59375 324.816406 928.304688 303.53125 898.113281 275.714844 C 876.363281 255.492188 856.539062 233.769531 838.632812 210.546875 L 832.578125 202.78125 L 818.910156 175.15625 C 798.304688 97.101562 782.621094 39.472656 771.851562 2.269531 Z M 782.574219 2.214844 " fill-opacity="1" fill-rule="nonzero"/><path fill="#dbeafe" d="M 821.003906 2.015625 L 824.09375 12.472656 C 832.316406 40.789062 843.410156 81.914062 857.371094 135.851562 C 861.382812 145.003906 878.171875 167.695312 907.730469 203.925781 C 914.460938 210.324219 921.453125 216.597656 928.71875 222.746094 C 959.429688 248.691406 991.085938 269.902344 1023.6875 286.378906 L 1167.207031 320.460938 C 1174.515625 322.300781 1180.707031 324.660156 1185.78125 327.535156 L 1185.835938 337.839844 C 1153.890625 328.207031 1098.480469 314.398438 1019.605469 296.410156 C 995 283.933594 980.605469 276.101562 976.429688 272.914062 C 958.171875 261.609375 941.152344 249.152344 925.375 235.546875 C 899.761719 214.730469 874.917969 184.839844 850.84375 145.878906 L 809.496094 2.078125 L 821.003906 2.019531 Z M 821.003906 2.015625 " fill-opacity="1" fill-rule="nonzero"/><path fill="#dbeafe" d="M 854.765625 1.84375 L 879.785156 91.078125 C 880.066406 94.375 898.167969 118.429688 934.082031 163.234375 C 953.398438 180.964844 980.464844 200.414062 1015.285156 221.578125 L 1044.789062 238.792969 C 1119.40625 255.300781 1166.308594 266.695312 1185.5 272.972656 L 1185.5625 284.839844 C 1114.683594 265.246094 1066.433594 253.253906 1040.808594 248.871094 C 1015.859375 234.8125 994.308594 221.710938 976.15625 209.566406 L 963.175781 200.640625 C 954.949219 194.808594 947.570312 189.214844 941.042969 183.859375 C 923.617188 169.074219 911.867188 157.429688 905.792969 148.921875 C 897.414062 137.570312 884.292969 116.523438 866.425781 85.785156 L 844.390625 1.898438 Z M 854.765625 1.84375 " fill-opacity="1" fill-rule="nonzero"/><path fill="#dbeafe" d="M 893.429688 1.644531 L 894.578125 6.109375 C 897.566406 17.78125 899.914062 27.65625 901.621094 35.730469 C 908.136719 48.71875 916.070312 62.34375 925.417969 76.601562 C 945.371094 105.792969 967.925781 129.101562 993.09375 146.527344 C 1007.121094 157.699219 1032.929688 173.835938 1070.53125 194.9375 L 1185.238281 222.09375 L 1185.292969 232.804688 L 1055.292969 199.964844 C 1047.96875 198.433594 1031.863281 188.425781 1006.972656 169.941406 C 988.335938 155.511719 961.21875 131.46875 925.625 97.816406 C 918.421875 86.917969 906.191406 65.425781 888.929688 33.335938 L 880.875 1.707031 Z M 893.429688 1.644531 " fill-opacity="1" fill-rule="nonzero"/><path fill="#dbeafe" d="M 935.011719 1.429688 L 935.945312 4.945312 C 938.726562 11.292969 943.414062 19.6875 950.007812 30.132812 C 953.878906 36.8125 965.097656 53.066406 983.667969 78.894531 C 995.078125 89.960938 1014.921875 106.011719 1043.203125 127.054688 C 1073.757812 147.832031 1093.613281 160.304688 1102.773438 164.46875 L 1105.703125 165.640625 L 1185.042969 183.777344 L 1185.101562 195.046875 L 1101.523438 175.621094 C 1056.515625 148.335938 1025.265625 128.425781 1007.765625 115.902344 C 998.804688 110.105469 990.542969 102.480469 982.980469 93.035156 C 963.738281 70.5625 951.335938 54.472656 945.773438 44.765625 C 930.957031 20.367188 923.511719 5.941406 923.429688 1.488281 Z M 935.011719 1.429688 " fill-opacity="1" fill-rule="nonzero"/><path fill="#dbeafe" d="M 984.0625 1.179688 L 985.046875 2.742188 C 990.421875 11.527344 998.761719 22.457031 1010.058594 35.535156 C 1019.257812 44.875 1037.59375 60.308594 1065.066406 81.835938 L 1131.445312 121.785156 L 1184.78125 133.355469 L 1184.839844 144.863281 L 1154.582031 140.378906 C 1124.921875 130.335938 1099.199219 118.554688 1077.414062 105.042969 C 1072.394531 101.800781 1067.691406 98.46875 1063.316406 95.054688 L 1034.1875 69.371094 C 1008.234375 46.199219 991.808594 30.5625 984.917969 22.464844 C 979.523438 15.769531 975.140625 8.695312 971.765625 1.242188 Z M 984.0625 1.179688 " fill-opacity="1" fill-rule="nonzero"/><g clip-path="url(#531e21a8cb)"><path fill="#dbeafe" d="M 1056.355469 0.804688 L 1062.015625 6.035156 C 1085.273438 26.929688 1105.75 43.785156 1123.441406 56.605469 C 1130.011719 60.863281 1138.773438 65.5625 1149.730469 70.703125 C 1160.664062 75.265625 1172.261719 79.476562 1184.523438 83.328125 C 1185.460938 86.992188 1185.582031 89.71875 1184.894531 91.515625 C 1183.324219 93.582031 1180.894531 94.550781 1177.597656 94.417969 C 1173.09375 93.292969 1166.773438 91.152344 1158.640625 88 C 1141.957031 79.414062 1129.117188 72.054688 1120.125 65.921875 C 1091.582031 47.808594 1066.84375 28.652344 1045.90625 8.453125 C 1043.566406 6.066406 1041.179688 3.546875 1038.742188 0.898438 Z M 1056.355469 0.804688 " fill-opacity="1" fill-rule="nonzero"/></g><g clip-path="url(#cf7ece6077)"><path fill="#dbeafe" d="M 1131.882812 0.417969 L 1137.371094 4.042969 C 1152.117188 13.652344 1167.746094 22.761719 1184.257812 31.375 L 1184.320312 43.792969 C 1173.324219 39.105469 1157.796875 30.105469 1137.734375 16.796875 L 1114.117188 0.507812 Z M 1131.882812 0.417969 " fill-opacity="1" fill-rule="nonzero"/></g></svg>