<svg xmlns="http://www.w3.org/2000/svg" xmlns:xlink="http://www.w3.org/1999/xlink" width="1587" zoomAndPan="magnify" viewBox="0 0 1190.25 1683.749945" height="2245" preserveAspectRatio="xMidYMid meet" version="1.0"><defs><clipPath id="99893e54f3"><path d="M 0 0.40625 L 1189.5 0.40625 L 1189.5 1683.09375 L 0 1683.09375 Z M 0 0.40625 " clip-rule="nonzero"/></clipPath><clipPath id="cae0292228"><path d="M 71.589844 566.136719 L 547.542969 566.136719 L 547.542969 1042.085938 L 71.589844 1042.085938 Z M 71.589844 566.136719 " clip-rule="nonzero"/></clipPath><clipPath id="e6330a98d4"><path d="M 619 52.546875 L 1094.835938 52.546875 L 1094.835938 528.496094 L 619 528.496094 Z M 619 52.546875 " clip-rule="nonzero"/></clipPath><clipPath id="e15d92b422"><path d="M 0 52.546875 L 475.949219 52.546875 L 475.949219 528.460938 L 0 528.460938 Z M 0 52.546875 " clip-rule="nonzero"/></clipPath><clipPath id="5252d25578"><path d="M 618.886719 603.804688 L 1094.835938 603.804688 L 1094.835938 1079.753906 L 618.886719 1079.753906 Z M 618.886719 603.804688 " clip-rule="nonzero"/></clipPath><clipPath id="03195553e2"><path d="M 71.589844 1079.726562 L 547.542969 1079.726562 L 547.542969 1555.675781 L 71.589844 1555.675781 Z M 71.589844 1079.726562 " clip-rule="nonzero"/></clipPath><clipPath id="cf9c6d926a"><path d="M 595 1155.425781 L 1070.851562 1155.425781 L 1070.851562 1631.378906 L 595 1631.378906 Z M 595 1155.425781 " clip-rule="nonzero"/></clipPath></defs><g clip-path="url(#99893e54f3)"><path fill="#ffffff" d="M 0 0.40625 L 1189.5 0.40625 L 1189.5 1683.09375 L 0 1683.09375 Z M 0 0.40625 " fill-opacity="1" fill-rule="nonzero"/><path fill="#ffffff" d="M 0 0.40625 L 1189.5 0.40625 L 1189.5 1683.09375 L 0 1683.09375 Z M 0 0.40625 " fill-opacity="1" fill-rule="nonzero"/></g><g clip-path="url(#cae0292228)"><path fill="#9333ea" d="M 309.546875 566.136719 C 178.25 566.136719 71.589844 672.792969 71.589844 804.09375 C 71.589844 935.390625 178.25 1042.050781 309.546875 1042.050781 C 440.847656 1042.050781 547.507812 935.390625 547.507812 804.09375 C 547.507812 672.792969 440.847656 566.136719 309.546875 566.136719 Z M 309.546875 586.828125 C 429.664062 586.828125 526.8125 683.976562 526.8125 804.09375 C 526.8125 924.207031 429.664062 1021.359375 309.546875 1021.359375 C 189.433594 1021.359375 92.28125 924.207031 92.28125 804.09375 C 92.28125 683.976562 189.433594 586.828125 309.546875 586.828125 Z M 309.546875 586.828125 " fill-opacity="1" fill-rule="nonzero"/></g><g clip-path="url(#e6330a98d4)"><path fill="#9333ea" d="M 857.042969 52.503906 C 853.148438 52.503906 849.257812 52.597656 845.367188 52.789062 C 841.480469 52.980469 837.597656 53.265625 833.722656 53.648438 C 829.847656 54.03125 825.984375 54.507812 822.132812 55.078125 C 818.28125 55.648438 814.445312 56.316406 810.625 57.074219 C 806.808594 57.835938 803.007812 58.6875 799.234375 59.632812 C 795.457031 60.578125 791.703125 61.617188 787.976562 62.75 C 784.253906 63.878906 780.554688 65.101562 776.890625 66.410156 C 773.222656 67.722656 769.59375 69.125 765.996094 70.613281 C 762.398438 72.105469 758.839844 73.683594 755.320312 75.347656 C 751.800781 77.011719 748.324219 78.761719 744.890625 80.597656 C 741.453125 82.433594 738.066406 84.351562 734.726562 86.351562 C 731.386719 88.355469 728.101562 90.4375 724.863281 92.601562 C 721.625 94.761719 718.441406 97.003906 715.316406 99.324219 C 712.1875 101.644531 709.117188 104.039062 706.109375 106.507812 C 703.097656 108.980469 700.152344 111.519531 697.265625 114.136719 C 694.382812 116.75 691.5625 119.433594 688.808594 122.1875 C 686.054688 124.941406 683.371094 127.761719 680.757812 130.644531 C 678.144531 133.53125 675.601562 136.476562 673.128906 139.488281 C 670.660156 142.496094 668.265625 145.566406 665.945312 148.695312 C 663.625 151.820312 661.386719 155.003906 659.222656 158.242188 C 657.058594 161.476562 654.976562 164.765625 652.972656 168.105469 C 650.972656 171.445312 649.054688 174.832031 647.21875 178.265625 C 645.382812 181.699219 643.632812 185.179688 641.96875 188.699219 C 640.304688 192.21875 638.726562 195.777344 637.234375 199.375 C 635.746094 202.96875 634.34375 206.601562 633.035156 210.269531 C 631.722656 213.933594 630.5 217.628906 629.371094 221.355469 C 628.242188 225.082031 627.203125 228.832031 626.257812 232.609375 C 625.308594 236.386719 624.457031 240.183594 623.699219 244.003906 C 622.9375 247.824219 622.273438 251.65625 621.699219 255.507812 C 621.128906 259.359375 620.652344 263.222656 620.273438 267.097656 C 619.890625 270.972656 619.605469 274.855469 619.414062 278.746094 C 619.222656 282.632812 619.125 286.523438 619.125 290.417969 C 619.125 294.3125 619.222656 298.203125 619.414062 302.09375 C 619.605469 305.980469 619.890625 309.863281 620.273438 313.738281 C 620.652344 317.613281 621.128906 321.476562 621.703125 325.328125 C 622.273438 329.179688 622.9375 333.015625 623.699219 336.832031 C 624.457031 340.652344 625.308594 344.449219 626.257812 348.226562 C 627.203125 352.003906 628.242188 355.757812 629.371094 359.480469 C 630.5 363.207031 631.722656 366.90625 633.035156 370.570312 C 634.347656 374.238281 635.746094 377.867188 637.238281 381.464844 C 638.726562 385.0625 640.304688 388.621094 641.96875 392.140625 C 643.632812 395.660156 645.382812 399.136719 647.21875 402.570312 C 649.054688 406.003906 650.972656 409.390625 652.976562 412.730469 C 654.976562 416.070312 657.058594 419.359375 659.222656 422.597656 C 661.386719 425.835938 663.628906 429.019531 665.945312 432.144531 C 668.265625 435.273438 670.660156 438.339844 673.132812 441.351562 C 675.601562 444.359375 678.144531 447.308594 680.757812 450.191406 C 683.375 453.078125 686.058594 455.898438 688.8125 458.652344 C 691.5625 461.402344 694.382812 464.089844 697.269531 466.703125 C 700.152344 469.316406 703.101562 471.859375 706.109375 474.332031 C 709.121094 476.800781 712.1875 479.195312 715.316406 481.515625 C 718.445312 483.832031 721.625 486.074219 724.863281 488.238281 C 728.101562 490.402344 731.390625 492.484375 734.730469 494.484375 C 738.070312 496.488281 741.457031 498.40625 744.890625 500.242188 C 748.324219 502.078125 751.800781 503.828125 755.320312 505.492188 C 758.839844 507.15625 762.398438 508.734375 765.996094 510.222656 C 769.59375 511.714844 773.226562 513.113281 776.890625 514.425781 C 780.558594 515.738281 784.253906 516.960938 787.980469 518.089844 C 791.703125 519.21875 795.457031 520.257812 799.234375 521.203125 C 803.011719 522.152344 806.808594 523.003906 810.625 523.761719 C 814.445312 524.523438 818.28125 525.1875 822.132812 525.757812 C 825.984375 526.332031 829.847656 526.808594 833.722656 527.1875 C 837.597656 527.570312 841.480469 527.855469 845.367188 528.046875 C 849.257812 528.238281 853.148438 528.335938 857.042969 528.335938 C 860.933594 528.335938 864.828125 528.238281 868.714844 528.046875 C 872.605469 527.855469 876.488281 527.570312 880.363281 527.1875 C 884.238281 526.808594 888.101562 526.332031 891.953125 525.757812 C 895.800781 525.1875 899.636719 524.523438 903.457031 523.761719 C 907.277344 523.003906 911.074219 522.148438 914.851562 521.203125 C 918.628906 520.257812 922.378906 519.21875 926.105469 518.089844 C 929.832031 516.957031 933.527344 515.738281 937.191406 514.425781 C 940.859375 513.113281 944.492188 511.714844 948.089844 510.222656 C 951.683594 508.734375 955.242188 507.15625 958.765625 505.492188 C 962.285156 503.824219 965.761719 502.074219 969.195312 500.242188 C 972.628906 498.40625 976.015625 496.488281 979.355469 494.484375 C 982.695312 492.484375 985.984375 490.402344 989.21875 488.238281 C 992.457031 486.074219 995.640625 483.832031 998.769531 481.511719 C 1001.894531 479.195312 1004.964844 476.800781 1007.972656 474.328125 C 1010.984375 471.859375 1013.929688 469.316406 1016.816406 466.703125 C 1019.699219 464.085938 1022.519531 461.402344 1025.273438 458.648438 C 1028.027344 455.894531 1030.710938 453.078125 1033.324219 450.191406 C 1035.941406 447.308594 1038.484375 444.359375 1040.953125 441.351562 C 1043.421875 438.339844 1045.816406 435.269531 1048.136719 432.144531 C 1050.457031 429.015625 1052.699219 425.835938 1054.859375 422.597656 C 1057.023438 419.359375 1059.105469 416.070312 1061.109375 412.730469 C 1063.109375 409.390625 1065.027344 406.003906 1066.863281 402.570312 C 1068.699219 399.136719 1070.449219 395.660156 1072.113281 392.140625 C 1073.78125 388.621094 1075.355469 385.0625 1076.847656 381.464844 C 1078.335938 377.867188 1079.738281 374.234375 1081.050781 370.570312 C 1082.359375 366.902344 1083.582031 363.207031 1084.710938 359.480469 C 1085.84375 355.753906 1086.882812 352.003906 1087.828125 348.226562 C 1088.773438 344.449219 1089.625 340.652344 1090.386719 336.832031 C 1091.144531 333.015625 1091.8125 329.179688 1092.382812 325.328125 C 1092.953125 321.476562 1093.429688 317.613281 1093.8125 313.738281 C 1094.191406 309.863281 1094.480469 305.980469 1094.671875 302.09375 C 1094.863281 298.203125 1094.957031 294.3125 1094.957031 290.417969 C 1094.957031 286.523438 1094.863281 282.632812 1094.671875 278.746094 C 1094.480469 274.855469 1094.191406 270.972656 1093.8125 267.097656 C 1093.429688 263.222656 1092.953125 259.359375 1092.382812 255.507812 C 1091.808594 251.65625 1091.144531 247.824219 1090.386719 244.003906 C 1089.625 240.183594 1088.773438 236.386719 1087.828125 232.609375 C 1086.878906 228.832031 1085.84375 225.082031 1084.710938 221.355469 C 1083.582031 217.628906 1082.359375 213.933594 1081.046875 210.265625 C 1079.738281 206.601562 1078.335938 202.96875 1076.847656 199.371094 C 1075.355469 195.773438 1073.777344 192.214844 1072.113281 188.695312 C 1070.449219 185.175781 1068.699219 181.699219 1066.863281 178.265625 C 1065.027344 174.832031 1063.109375 171.445312 1061.109375 168.105469 C 1059.105469 164.765625 1057.023438 161.476562 1054.859375 158.238281 C 1052.695312 155.003906 1050.457031 151.820312 1048.136719 148.691406 C 1045.816406 145.566406 1043.421875 142.496094 1040.953125 139.488281 C 1038.480469 136.476562 1035.9375 133.527344 1033.324219 130.644531 C 1030.710938 127.757812 1028.023438 124.941406 1025.273438 122.1875 C 1022.519531 119.433594 1019.699219 116.75 1016.816406 114.136719 C 1013.929688 111.519531 1010.980469 108.976562 1007.972656 106.507812 C 1004.960938 104.039062 1001.894531 101.640625 998.765625 99.324219 C 995.640625 97.003906 992.457031 94.761719 989.21875 92.597656 C 985.980469 90.4375 982.691406 88.351562 979.355469 86.351562 C 976.015625 84.351562 972.628906 82.429688 969.191406 80.597656 C 965.757812 78.761719 962.28125 77.011719 958.761719 75.34375 C 955.242188 73.679688 951.683594 72.101562 948.085938 70.613281 C 944.488281 69.125 940.859375 67.722656 937.191406 66.410156 C 933.527344 65.097656 929.832031 63.878906 926.105469 62.746094 C 922.378906 61.617188 918.625 60.578125 914.851562 59.632812 C 911.074219 58.6875 907.273438 57.835938 903.457031 57.074219 C 899.636719 56.316406 895.800781 55.648438 891.949219 55.078125 C 888.097656 54.507812 884.234375 54.03125 880.359375 53.648438 C 876.484375 53.265625 872.605469 52.980469 868.714844 52.789062 C 864.828125 52.597656 860.933594 52.503906 857.042969 52.503906 Z M 857.042969 93.839844 C 860.257812 93.839844 863.472656 93.921875 866.6875 94.078125 C 869.898438 94.234375 873.109375 94.472656 876.308594 94.789062 C 879.511719 95.105469 882.703125 95.496094 885.886719 95.96875 C 889.066406 96.441406 892.234375 96.992188 895.390625 97.621094 C 898.546875 98.246094 901.683594 98.953125 904.804688 99.734375 C 907.925781 100.515625 911.027344 101.371094 914.105469 102.308594 C 917.183594 103.242188 920.238281 104.25 923.265625 105.332031 C 926.292969 106.417969 929.296875 107.574219 932.269531 108.804688 C 935.238281 110.039062 938.179688 111.339844 941.089844 112.714844 C 943.996094 114.089844 946.871094 115.539062 949.707031 117.054688 C 952.542969 118.570312 955.34375 120.15625 958.101562 121.808594 C 960.859375 123.464844 963.578125 125.183594 966.253906 126.972656 C 968.929688 128.757812 971.558594 130.613281 974.140625 132.527344 C 976.726562 134.445312 979.261719 136.421875 981.746094 138.464844 C 984.234375 140.503906 986.667969 142.605469 989.054688 144.765625 C 991.4375 146.925781 993.765625 149.144531 996.042969 151.417969 C 998.316406 153.695312 1000.535156 156.023438 1002.695312 158.40625 C 1004.855469 160.789062 1006.957031 163.226562 1008.996094 165.710938 C 1011.039062 168.199219 1013.015625 170.734375 1014.933594 173.320312 C 1016.847656 175.902344 1018.699219 178.53125 1020.488281 181.207031 C 1022.277344 183.882812 1023.996094 186.597656 1025.648438 189.359375 C 1027.304688 192.117188 1028.890625 194.917969 1030.40625 197.753906 C 1031.921875 200.589844 1033.367188 203.464844 1034.742188 206.371094 C 1036.121094 209.28125 1037.421875 212.21875 1038.652344 215.191406 C 1039.886719 218.164062 1041.042969 221.164062 1042.125 224.195312 C 1043.210938 227.222656 1044.21875 230.277344 1045.152344 233.355469 C 1046.085938 236.433594 1046.945312 239.535156 1047.726562 242.65625 C 1048.507812 245.777344 1049.214844 248.914062 1049.839844 252.070312 C 1050.46875 255.222656 1051.019531 258.394531 1051.492188 261.574219 C 1051.964844 264.757812 1052.355469 267.949219 1052.671875 271.152344 C 1052.988281 274.351562 1053.222656 277.558594 1053.382812 280.773438 C 1053.539062 283.988281 1053.621094 287.203125 1053.621094 290.417969 C 1053.621094 293.636719 1053.539062 296.851562 1053.382812 300.0625 C 1053.222656 303.277344 1052.988281 306.484375 1052.671875 309.6875 C 1052.355469 312.886719 1051.964844 316.082031 1051.492188 319.261719 C 1051.019531 322.445312 1050.46875 325.613281 1049.839844 328.769531 C 1049.214844 331.925781 1048.507812 335.0625 1047.726562 338.183594 C 1046.945312 341.304688 1046.085938 344.402344 1045.152344 347.480469 C 1044.21875 350.558594 1043.210938 353.613281 1042.125 356.644531 C 1041.042969 359.671875 1039.886719 362.671875 1038.652344 365.644531 C 1037.421875 368.617188 1036.121094 371.558594 1034.742188 374.464844 C 1033.367188 377.375 1031.921875 380.246094 1030.40625 383.082031 C 1028.890625 385.921875 1027.304688 388.71875 1025.648438 391.480469 C 1023.996094 394.238281 1022.277344 396.957031 1020.488281 399.628906 C 1018.699219 402.304688 1016.847656 404.933594 1014.933594 407.519531 C 1013.015625 410.101562 1011.039062 412.636719 1008.996094 415.125 C 1006.957031 417.613281 1004.855469 420.046875 1002.695312 422.429688 C 1000.535156 424.8125 998.316406 427.144531 996.042969 429.417969 C 993.765625 431.691406 991.4375 433.910156 989.054688 436.070312 C 986.667969 438.230469 984.234375 440.332031 981.746094 442.375 C 979.261719 444.414062 976.726562 446.394531 974.140625 448.308594 C 971.558594 450.226562 968.929688 452.078125 966.253906 453.867188 C 963.578125 455.652344 960.859375 457.375 958.101562 459.027344 C 955.34375 460.679688 952.542969 462.265625 949.707031 463.78125 C 946.871094 465.300781 943.996094 466.746094 941.089844 468.121094 C 938.179688 469.496094 935.238281 470.800781 932.269531 472.03125 C 929.296875 473.261719 926.292969 474.421875 923.265625 475.503906 C 920.238281 476.585938 917.183594 477.597656 914.105469 478.53125 C 911.027344 479.464844 907.925781 480.324219 904.804688 481.105469 C 901.683594 481.886719 898.546875 482.589844 895.390625 483.21875 C 892.234375 483.847656 889.066406 484.394531 885.886719 484.867188 C 882.703125 485.339844 879.511719 485.734375 876.308594 486.050781 C 873.109375 486.363281 869.898438 486.601562 866.6875 486.757812 C 863.472656 486.917969 860.257812 486.996094 857.042969 486.996094 C 853.824219 486.996094 850.609375 486.917969 847.394531 486.757812 C 844.183594 486.601562 840.976562 486.363281 837.773438 486.050781 C 834.570312 485.734375 831.378906 485.339844 828.199219 484.867188 C 825.015625 484.394531 821.847656 483.847656 818.691406 483.21875 C 815.535156 482.589844 812.398438 481.886719 809.277344 481.105469 C 806.15625 480.324219 803.058594 479.464844 799.980469 478.53125 C 796.898438 477.597656 793.847656 476.585938 790.816406 475.503906 C 787.789062 474.421875 784.789062 473.261719 781.816406 472.03125 C 778.84375 470.800781 775.902344 469.496094 772.996094 468.121094 C 770.085938 466.746094 767.214844 465.300781 764.375 463.78125 C 761.539062 462.265625 758.742188 460.679688 755.980469 459.027344 C 753.222656 457.375 750.503906 455.652344 747.832031 453.867188 C 745.15625 452.078125 742.527344 450.226562 739.941406 448.308594 C 737.359375 446.394531 734.824219 444.414062 732.335938 442.375 C 729.847656 440.332031 727.414062 438.230469 725.03125 436.070312 C 722.644531 433.910156 720.316406 431.691406 718.042969 429.417969 C 715.765625 427.144531 713.550781 424.8125 711.390625 422.429688 C 709.226562 420.046875 707.128906 417.613281 705.085938 415.125 C 703.046875 412.636719 701.066406 410.101562 699.152344 407.519531 C 697.234375 404.933594 695.382812 402.304688 693.59375 399.628906 C 691.808594 396.957031 690.085938 394.238281 688.433594 391.480469 C 686.777344 388.71875 685.195312 385.921875 683.675781 383.082031 C 682.160156 380.246094 680.714844 377.375 679.339844 374.464844 C 677.964844 371.558594 676.660156 368.617188 675.429688 365.644531 C 674.199219 362.671875 673.039062 359.671875 671.957031 356.644531 C 670.871094 353.613281 669.863281 350.558594 668.929688 347.480469 C 667.996094 344.402344 667.136719 341.304688 666.355469 338.183594 C 665.574219 335.0625 664.871094 331.925781 664.242188 328.769531 C 663.613281 325.613281 663.0625 322.445312 662.59375 319.261719 C 662.121094 316.082031 661.726562 312.886719 661.410156 309.6875 C 661.09375 306.484375 660.859375 303.277344 660.699219 300.0625 C 660.542969 296.851562 660.464844 293.636719 660.464844 290.417969 C 660.464844 287.203125 660.542969 283.988281 660.699219 280.773438 C 660.859375 277.558594 661.09375 274.351562 661.410156 271.152344 C 661.726562 267.949219 662.121094 264.757812 662.59375 261.574219 C 663.0625 258.394531 663.613281 255.222656 664.242188 252.070312 C 664.871094 248.914062 665.574219 245.777344 666.355469 242.65625 C 667.136719 239.535156 667.996094 236.433594 668.929688 233.355469 C 669.863281 230.277344 670.871094 227.222656 671.957031 224.195312 C 673.039062 221.164062 674.199219 218.164062 675.429688 215.191406 C 676.660156 212.21875 677.964844 209.28125 679.339844 206.371094 C 680.714844 203.464844 682.160156 200.589844 683.675781 197.753906 C 685.195312 194.917969 686.777344 192.117188 688.433594 189.359375 C 690.085938 186.597656 691.808594 183.882812 693.59375 181.207031 C 695.382812 178.53125 697.234375 175.902344 699.152344 173.320312 C 701.066406 170.734375 703.046875 168.199219 705.085938 165.710938 C 707.128906 163.226562 709.226562 160.789062 711.390625 158.40625 C 713.550781 156.023438 715.765625 153.695312 718.042969 151.417969 C 720.316406 149.144531 722.644531 146.925781 725.03125 144.765625 C 727.414062 142.605469 729.847656 140.503906 732.335938 138.464844 C 734.824219 136.421875 737.359375 134.445312 739.941406 132.527344 C 742.527344 130.613281 745.15625 128.757812 747.832031 126.972656 C 750.503906 125.183594 753.222656 123.464844 755.980469 121.808594 C 758.742188 120.15625 761.539062 118.570312 764.375 117.054688 C 767.214844 115.539062 770.085938 114.089844 772.996094 112.714844 C 775.902344 111.339844 778.84375 110.039062 781.816406 108.804688 C 784.789062 107.574219 787.789062 106.417969 790.816406 105.332031 C 793.847656 104.25 796.898438 103.242188 799.980469 102.308594 C 803.058594 101.371094 806.15625 100.515625 809.277344 99.734375 C 812.398438 98.953125 815.535156 98.246094 818.691406 97.621094 C 821.847656 96.992188 825.015625 96.441406 828.199219 95.96875 C 831.378906 95.496094 834.570312 95.105469 837.773438 94.789062 C 840.976562 94.472656 844.183594 94.234375 847.394531 94.078125 C 850.609375 93.921875 853.824219 93.839844 857.042969 93.839844 Z M 857.042969 93.839844 " fill-opacity="1" fill-rule="nonzero"/></g><g clip-path="url(#e15d92b422)"><path fill="#9333ea" d="M 237.964844 52.527344 C 106.539062 52.527344 0 159.109375 0 290.539062 C 0 421.921875 106.539062 528.460938 237.964844 528.460938 C 369.394531 528.460938 475.933594 421.921875 475.933594 290.539062 C 475.933594 159.109375 369.394531 52.527344 237.964844 52.527344 Z M 237.964844 406.59375 C 174.0625 406.59375 122.222656 354.800781 122.222656 290.894531 C 122.222656 226.992188 174.0625 175.195312 237.964844 175.195312 C 301.871094 175.195312 353.664062 226.992188 353.664062 290.894531 C 353.664062 354.800781 301.871094 406.59375 237.964844 406.59375 Z M 237.964844 406.59375 " fill-opacity="1" fill-rule="nonzero"/></g><g clip-path="url(#5252d25578)"><path fill="#9333ea" d="M 856.84375 603.804688 C 725.371094 603.804688 618.886719 710.289062 618.886719 841.761719 C 618.886719 973.234375 725.371094 1079.71875 856.84375 1079.71875 C 988.316406 1079.71875 1094.800781 973.234375 1094.800781 841.761719 C 1094.800781 710.289062 988.316406 603.804688 856.84375 603.804688 Z M 856.84375 1032.128906 C 751.664062 1032.128906 666.476562 946.9375 666.476562 841.761719 C 666.476562 736.585938 751.664062 651.394531 856.84375 651.394531 C 962.019531 651.394531 1047.210938 736.585938 1047.210938 841.761719 C 1047.210938 946.9375 962.019531 1032.128906 856.84375 1032.128906 Z M 856.84375 1032.128906 " fill-opacity="1" fill-rule="nonzero"/></g><g clip-path="url(#03195553e2)"><path fill="#9333ea" d="M 309.546875 1079.726562 C 178.078125 1079.726562 71.589844 1186.210938 71.589844 1317.683594 C 71.589844 1449.152344 178.078125 1555.640625 309.546875 1555.640625 C 441.019531 1555.640625 547.507812 1449.152344 547.507812 1317.683594 C 547.507812 1186.210938 441.019531 1079.726562 309.546875 1079.726562 Z M 309.546875 1508.046875 C 204.609375 1508.046875 119.183594 1422.621094 119.183594 1317.683594 C 119.183594 1212.742188 204.609375 1127.316406 309.546875 1127.316406 C 414.488281 1127.316406 499.914062 1212.742188 499.914062 1317.683594 C 499.914062 1422.621094 414.488281 1508.046875 309.546875 1508.046875 Z M 309.546875 1508.046875 " fill-opacity="1" fill-rule="nonzero"/></g><g clip-path="url(#cf9c6d926a)"><path fill="#9333ea" d="M 833.058594 1155.386719 C 829.164062 1155.386719 825.273438 1155.480469 821.382812 1155.671875 C 817.492188 1155.863281 813.613281 1156.148438 809.738281 1156.53125 C 805.863281 1156.914062 802 1157.390625 798.148438 1157.960938 C 794.296875 1158.53125 790.460938 1159.199219 786.640625 1159.957031 C 782.824219 1160.71875 779.023438 1161.570312 775.246094 1162.515625 C 771.472656 1163.460938 767.71875 1164.5 763.992188 1165.628906 C 760.265625 1166.761719 756.570312 1167.980469 752.90625 1169.292969 C 749.238281 1170.605469 745.605469 1172.007812 742.011719 1173.496094 C 738.414062 1174.988281 734.855469 1176.5625 731.335938 1178.230469 C 727.816406 1179.894531 724.335938 1181.644531 720.902344 1183.480469 C 717.46875 1185.316406 714.082031 1187.234375 710.742188 1189.234375 C 707.402344 1191.238281 704.113281 1193.320312 700.878906 1195.484375 C 697.640625 1197.644531 694.457031 1199.886719 691.332031 1202.207031 C 688.203125 1204.527344 685.132812 1206.921875 682.125 1209.390625 C 679.113281 1211.859375 676.167969 1214.402344 673.28125 1217.019531 C 670.398438 1219.632812 667.578125 1222.316406 664.824219 1225.070312 C 662.070312 1227.824219 659.386719 1230.644531 656.773438 1233.527344 C 654.15625 1236.414062 651.617188 1239.359375 649.144531 1242.371094 C 646.675781 1245.378906 644.28125 1248.449219 641.960938 1251.574219 C 639.640625 1254.703125 637.398438 1257.886719 635.238281 1261.125 C 633.074219 1264.359375 630.992188 1267.648438 628.988281 1270.988281 C 626.988281 1274.328125 625.070312 1277.714844 623.234375 1281.148438 C 621.398438 1284.582031 619.648438 1288.058594 617.984375 1291.578125 C 616.320312 1295.097656 614.742188 1298.65625 613.25 1302.253906 C 611.761719 1305.851562 610.359375 1309.484375 609.046875 1313.148438 C 607.738281 1316.816406 606.515625 1320.511719 605.386719 1324.238281 C 604.253906 1327.964844 603.21875 1331.714844 602.269531 1335.492188 C 601.324219 1339.269531 600.472656 1343.066406 599.710938 1346.886719 C 598.953125 1350.707031 598.289062 1354.539062 597.714844 1358.390625 C 597.144531 1362.242188 596.667969 1366.105469 596.285156 1369.980469 C 595.90625 1373.855469 595.617188 1377.738281 595.425781 1381.628906 C 595.238281 1385.515625 595.140625 1389.40625 595.140625 1393.300781 C 595.140625 1397.195312 595.238281 1401.085938 595.429688 1404.976562 C 595.617188 1408.863281 595.90625 1412.746094 596.285156 1416.621094 C 596.667969 1420.496094 597.144531 1424.359375 597.714844 1428.210938 C 598.289062 1432.0625 598.953125 1435.898438 599.714844 1439.714844 C 600.472656 1443.535156 601.324219 1447.332031 602.273438 1451.109375 C 603.21875 1454.886719 604.257812 1458.636719 605.386719 1462.363281 C 606.515625 1466.089844 607.738281 1469.785156 609.050781 1473.453125 C 610.359375 1477.117188 611.761719 1480.75 613.253906 1484.347656 C 614.742188 1487.945312 616.320312 1491.503906 617.984375 1495.023438 C 619.648438 1498.542969 621.398438 1502.019531 623.234375 1505.453125 C 625.070312 1508.886719 626.988281 1512.273438 628.992188 1515.613281 C 630.992188 1518.953125 633.074219 1522.242188 635.238281 1525.480469 C 637.402344 1528.71875 639.644531 1531.898438 641.960938 1535.027344 C 644.28125 1538.15625 646.675781 1541.222656 649.148438 1544.234375 C 651.617188 1547.242188 654.160156 1550.191406 656.773438 1553.074219 C 659.390625 1555.960938 662.074219 1558.78125 664.824219 1561.53125 C 667.578125 1564.285156 670.398438 1566.96875 673.285156 1569.585938 C 676.167969 1572.199219 679.117188 1574.742188 682.125 1577.210938 C 685.136719 1579.683594 688.203125 1582.078125 691.332031 1584.398438 C 694.457031 1586.714844 697.640625 1588.957031 700.878906 1591.121094 C 704.117188 1593.285156 707.40625 1595.367188 710.746094 1597.367188 C 714.085938 1599.371094 717.472656 1601.289062 720.90625 1603.125 C 724.339844 1604.960938 727.816406 1606.710938 731.335938 1608.375 C 734.855469 1610.039062 738.414062 1611.617188 742.011719 1613.105469 C 745.609375 1614.597656 749.238281 1615.996094 752.90625 1617.308594 C 756.570312 1618.621094 760.269531 1619.839844 763.992188 1620.972656 C 767.71875 1622.101562 771.472656 1623.140625 775.25 1624.085938 C 779.023438 1625.03125 782.824219 1625.886719 786.640625 1626.644531 C 790.460938 1627.40625 794.296875 1628.070312 798.148438 1628.640625 C 802 1629.210938 805.863281 1629.6875 809.738281 1630.070312 C 813.613281 1630.453125 817.492188 1630.738281 821.382812 1630.929688 C 825.273438 1631.121094 829.164062 1631.214844 833.058594 1631.214844 C 836.949219 1631.214844 840.839844 1631.121094 844.730469 1630.929688 C 848.621094 1630.738281 852.5 1630.453125 856.375 1630.070312 C 860.25 1629.6875 864.113281 1629.210938 867.964844 1628.640625 C 871.816406 1628.070312 875.652344 1627.402344 879.472656 1626.644531 C 883.289062 1625.886719 887.089844 1625.03125 890.867188 1624.085938 C 894.644531 1623.140625 898.394531 1622.101562 902.121094 1620.972656 C 905.847656 1619.839844 909.542969 1618.621094 913.207031 1617.308594 C 916.875 1615.996094 920.507812 1614.59375 924.101562 1613.105469 C 927.699219 1611.617188 931.257812 1610.039062 934.777344 1608.375 C 938.296875 1606.707031 941.777344 1604.957031 945.210938 1603.121094 C 948.644531 1601.289062 952.03125 1599.367188 955.371094 1597.367188 C 958.710938 1595.363281 962 1593.28125 965.234375 1591.121094 C 968.472656 1588.957031 971.65625 1586.714844 974.78125 1584.394531 C 977.910156 1582.074219 980.980469 1579.679688 983.988281 1577.210938 C 987 1574.742188 989.945312 1572.199219 992.832031 1569.582031 C 995.714844 1566.96875 998.535156 1564.285156 1001.289062 1561.53125 C 1004.042969 1558.777344 1006.726562 1555.960938 1009.339844 1553.074219 C 1011.957031 1550.1875 1014.496094 1547.242188 1016.96875 1544.230469 C 1019.4375 1541.222656 1021.832031 1538.152344 1024.152344 1535.027344 C 1026.472656 1531.898438 1028.714844 1528.714844 1030.875 1525.480469 C 1033.039062 1522.242188 1035.121094 1518.953125 1037.125 1515.613281 C 1039.125 1512.273438 1041.042969 1508.886719 1042.878906 1505.453125 C 1044.714844 1502.019531 1046.464844 1498.542969 1048.128906 1495.023438 C 1049.792969 1491.503906 1051.371094 1487.945312 1052.863281 1484.347656 C 1054.351562 1480.75 1055.753906 1477.117188 1057.066406 1473.453125 C 1058.375 1469.785156 1059.597656 1466.089844 1060.726562 1462.363281 C 1061.859375 1458.636719 1062.894531 1454.886719 1063.84375 1451.109375 C 1064.789062 1447.332031 1065.640625 1443.535156 1066.402344 1439.714844 C 1067.160156 1435.898438 1067.824219 1432.0625 1068.398438 1428.210938 C 1068.96875 1424.359375 1069.445312 1420.496094 1069.828125 1416.621094 C 1070.207031 1412.746094 1070.496094 1408.863281 1070.6875 1404.976562 C 1070.875 1401.085938 1070.972656 1397.195312 1070.972656 1393.300781 C 1070.972656 1389.40625 1070.875 1385.515625 1070.683594 1381.625 C 1070.496094 1377.738281 1070.207031 1373.855469 1069.828125 1369.980469 C 1069.445312 1366.105469 1068.96875 1362.242188 1068.398438 1358.390625 C 1067.824219 1354.539062 1067.160156 1350.703125 1066.398438 1346.886719 C 1065.640625 1343.066406 1064.789062 1339.269531 1063.839844 1335.492188 C 1062.894531 1331.714844 1061.855469 1327.964844 1060.726562 1324.238281 C 1059.597656 1320.511719 1058.375 1316.816406 1057.0625 1313.148438 C 1055.753906 1309.484375 1054.351562 1305.851562 1052.859375 1302.253906 C 1051.371094 1298.65625 1049.792969 1295.097656 1048.128906 1291.578125 C 1046.464844 1288.058594 1044.714844 1284.582031 1042.878906 1281.148438 C 1041.042969 1277.714844 1039.125 1274.328125 1037.121094 1270.988281 C 1035.121094 1267.648438 1033.039062 1264.359375 1030.875 1261.121094 C 1028.710938 1257.882812 1026.46875 1254.703125 1024.152344 1251.574219 C 1021.832031 1248.445312 1019.4375 1245.378906 1016.964844 1242.367188 C 1014.496094 1239.359375 1011.953125 1236.410156 1009.339844 1233.527344 C 1006.722656 1230.640625 1004.039062 1227.824219 1001.289062 1225.070312 C 998.535156 1222.316406 995.714844 1219.632812 992.828125 1217.015625 C 989.945312 1214.402344 986.996094 1211.859375 983.988281 1209.390625 C 980.976562 1206.917969 977.910156 1204.523438 974.78125 1202.207031 C 971.65625 1199.886719 968.472656 1197.644531 965.234375 1195.480469 C 961.996094 1193.316406 958.707031 1191.234375 955.367188 1189.234375 C 952.027344 1187.230469 948.640625 1185.3125 945.207031 1183.476562 C 941.773438 1181.644531 938.296875 1179.890625 934.777344 1178.226562 C 931.257812 1176.5625 927.699219 1174.984375 924.101562 1173.496094 C 920.503906 1172.003906 916.875 1170.605469 913.207031 1169.292969 C 909.542969 1167.980469 905.84375 1166.761719 902.121094 1165.628906 C 898.394531 1164.5 894.640625 1163.460938 890.863281 1162.515625 C 887.089844 1161.570312 883.289062 1160.714844 879.472656 1159.957031 C 875.652344 1159.199219 871.816406 1158.53125 867.964844 1157.960938 C 864.113281 1157.390625 860.25 1156.914062 856.375 1156.53125 C 852.5 1156.148438 848.621094 1155.863281 844.730469 1155.671875 C 840.839844 1155.480469 836.949219 1155.386719 833.058594 1155.386719 Z M 833.058594 1196.722656 C 836.273438 1196.722656 839.488281 1196.800781 842.703125 1196.960938 C 845.914062 1197.117188 849.121094 1197.355469 852.324219 1197.671875 C 855.527344 1197.984375 858.71875 1198.378906 861.898438 1198.851562 C 865.082031 1199.324219 868.25 1199.875 871.40625 1200.5 C 874.5625 1201.128906 877.699219 1201.832031 880.820312 1202.617188 C 883.941406 1203.398438 887.039062 1204.253906 890.121094 1205.1875 C 893.199219 1206.125 896.25 1207.132812 899.28125 1208.214844 C 902.308594 1209.300781 905.3125 1210.457031 908.28125 1211.6875 C 911.253906 1212.917969 914.195312 1214.222656 917.101562 1215.597656 C 920.011719 1216.972656 922.882812 1218.421875 925.722656 1219.9375 C 928.558594 1221.453125 931.355469 1223.039062 934.117188 1224.691406 C 936.875 1226.347656 939.59375 1228.066406 942.269531 1229.855469 C 944.941406 1231.640625 947.574219 1233.492188 950.15625 1235.410156 C 952.742188 1237.328125 955.277344 1239.304688 957.761719 1241.347656 C 960.25 1243.386719 962.683594 1245.488281 965.070312 1247.648438 C 967.453125 1249.808594 969.78125 1252.027344 972.054688 1254.300781 C 974.332031 1256.574219 976.550781 1258.90625 978.710938 1261.289062 C 980.871094 1263.671875 982.96875 1266.109375 985.011719 1268.59375 C 987.050781 1271.082031 989.03125 1273.617188 990.949219 1276.203125 C 992.863281 1278.785156 994.714844 1281.414062 996.503906 1284.089844 C 998.289062 1286.765625 1000.011719 1289.480469 1001.664062 1292.242188 C 1003.320312 1295 1004.90625 1297.800781 1006.421875 1300.636719 C 1007.9375 1303.472656 1009.382812 1306.347656 1010.757812 1309.253906 C 1012.132812 1312.164062 1013.4375 1315.101562 1014.667969 1318.074219 C 1015.902344 1321.046875 1017.058594 1324.046875 1018.140625 1327.078125 C 1019.226562 1330.105469 1020.234375 1333.160156 1021.167969 1336.238281 C 1022.101562 1339.316406 1022.960938 1342.417969 1023.742188 1345.535156 C 1024.523438 1348.65625 1025.230469 1351.796875 1025.855469 1354.949219 C 1026.484375 1358.105469 1027.035156 1361.273438 1027.507812 1364.457031 C 1027.976562 1367.640625 1028.371094 1370.832031 1028.6875 1374.03125 C 1029.003906 1377.234375 1029.238281 1380.441406 1029.398438 1383.65625 C 1029.554688 1386.867188 1029.632812 1390.082031 1029.632812 1393.300781 C 1029.632812 1396.519531 1029.554688 1399.734375 1029.398438 1402.945312 C 1029.238281 1406.160156 1029.003906 1409.367188 1028.6875 1412.570312 C 1028.371094 1415.769531 1027.976562 1418.960938 1027.507812 1422.144531 C 1027.035156 1425.328125 1026.484375 1428.496094 1025.855469 1431.652344 C 1025.230469 1434.804688 1024.523438 1437.945312 1023.742188 1441.066406 C 1022.960938 1444.1875 1022.101562 1447.285156 1021.167969 1450.363281 C 1020.234375 1453.441406 1019.226562 1456.496094 1018.140625 1459.523438 C 1017.058594 1462.554688 1015.902344 1465.554688 1014.667969 1468.527344 C 1013.4375 1471.5 1012.132812 1474.441406 1010.757812 1477.347656 C 1009.382812 1480.257812 1007.9375 1483.128906 1006.421875 1485.964844 C 1004.90625 1488.804688 1003.320312 1491.601562 1001.664062 1494.359375 C 1000.011719 1497.121094 998.289062 1499.835938 996.503906 1502.511719 C 994.714844 1505.1875 992.863281 1507.816406 990.949219 1510.402344 C 989.03125 1512.984375 987.050781 1515.519531 985.011719 1518.007812 C 982.96875 1520.492188 980.871094 1522.929688 978.710938 1525.3125 C 976.550781 1527.695312 974.332031 1530.027344 972.054688 1532.300781 C 969.78125 1534.574219 967.453125 1536.792969 965.070312 1538.953125 C 962.683594 1541.113281 960.25 1543.214844 957.761719 1545.253906 C 955.277344 1547.296875 952.742188 1549.277344 950.15625 1551.191406 C 947.574219 1553.109375 944.941406 1554.960938 942.269531 1556.746094 C 939.59375 1558.535156 936.875 1560.253906 934.117188 1561.910156 C 931.355469 1563.5625 928.558594 1565.148438 925.722656 1566.664062 C 922.882812 1568.183594 920.011719 1569.628906 917.101562 1571.003906 C 914.195312 1572.378906 911.253906 1573.683594 908.28125 1574.914062 C 905.3125 1576.144531 902.308594 1577.300781 899.28125 1578.386719 C 896.25 1579.46875 893.199219 1580.480469 890.121094 1581.414062 C 887.039062 1582.347656 883.941406 1583.203125 880.820312 1583.988281 C 877.699219 1584.769531 874.5625 1585.472656 871.40625 1586.101562 C 868.25 1586.726562 865.082031 1587.277344 861.898438 1587.75 C 858.71875 1588.222656 855.527344 1588.617188 852.324219 1588.933594 C 849.121094 1589.246094 845.914062 1589.484375 842.703125 1589.640625 C 839.488281 1589.800781 836.273438 1589.878906 833.058594 1589.878906 C 829.839844 1589.878906 826.625 1589.800781 823.410156 1589.640625 C 820.199219 1589.484375 816.992188 1589.246094 813.789062 1588.933594 C 810.585938 1588.617188 807.394531 1588.222656 804.214844 1587.75 C 801.03125 1587.277344 797.863281 1586.726562 794.707031 1586.101562 C 791.550781 1585.472656 788.414062 1584.769531 785.292969 1583.988281 C 782.171875 1583.203125 779.074219 1582.347656 775.992188 1581.414062 C 772.914062 1580.480469 769.863281 1579.46875 766.832031 1578.386719 C 763.804688 1577.300781 760.800781 1576.144531 757.832031 1574.914062 C 754.859375 1573.683594 751.917969 1572.378906 749.011719 1571.003906 C 746.101562 1569.628906 743.230469 1568.183594 740.390625 1566.664062 C 737.554688 1565.148438 734.757812 1563.5625 731.996094 1561.910156 C 729.238281 1560.253906 726.519531 1558.535156 723.84375 1556.746094 C 721.171875 1554.960938 718.539062 1553.109375 715.957031 1551.191406 C 713.371094 1549.277344 710.835938 1547.296875 708.351562 1545.253906 C 705.863281 1543.214844 703.429688 1541.113281 701.042969 1538.953125 C 698.660156 1536.792969 696.332031 1534.574219 694.058594 1532.300781 C 691.78125 1530.027344 689.5625 1527.695312 687.402344 1525.3125 C 685.242188 1522.929688 683.144531 1520.492188 681.101562 1518.007812 C 679.0625 1515.519531 677.082031 1512.984375 675.164062 1510.402344 C 673.25 1507.816406 671.398438 1505.1875 669.609375 1502.511719 C 667.824219 1499.835938 666.101562 1497.121094 664.449219 1494.359375 C 662.792969 1491.601562 661.207031 1488.804688 659.691406 1485.964844 C 658.175781 1483.128906 656.730469 1480.257812 655.355469 1477.347656 C 653.980469 1474.441406 652.675781 1471.5 651.445312 1468.527344 C 650.210938 1465.554688 649.054688 1462.554688 647.972656 1459.523438 C 646.886719 1456.496094 645.878906 1453.441406 644.945312 1450.363281 C 644.011719 1447.285156 643.152344 1444.1875 642.371094 1441.066406 C 641.589844 1437.945312 640.882812 1434.804688 640.257812 1431.652344 C 639.628906 1428.496094 639.078125 1425.328125 638.605469 1422.144531 C 638.136719 1418.960938 637.742188 1415.769531 637.425781 1412.570312 C 637.109375 1409.367188 636.875 1406.160156 636.714844 1402.945312 C 636.558594 1399.734375 636.480469 1396.519531 636.480469 1393.300781 C 636.480469 1390.082031 636.558594 1386.867188 636.714844 1383.65625 C 636.875 1380.441406 637.109375 1377.234375 637.425781 1374.03125 C 637.742188 1370.832031 638.136719 1367.640625 638.605469 1364.457031 C 639.078125 1361.273438 639.628906 1358.105469 640.257812 1354.949219 C 640.882812 1351.796875 641.589844 1348.65625 642.371094 1345.535156 C 643.152344 1342.417969 644.011719 1339.316406 644.945312 1336.238281 C 645.878906 1333.160156 646.886719 1330.105469 647.972656 1327.078125 C 649.054688 1324.046875 650.210938 1321.046875 651.445312 1318.074219 C 652.675781 1315.101562 653.980469 1312.164062 655.355469 1309.253906 C 656.730469 1306.347656 658.175781 1303.472656 659.691406 1300.636719 C 661.207031 1297.800781 662.792969 1295 664.449219 1292.242188 C 666.101562 1289.480469 667.824219 1286.765625 669.609375 1284.089844 C 671.398438 1281.414062 673.25 1278.785156 675.164062 1276.203125 C 677.082031 1273.617188 679.0625 1271.082031 681.101562 1268.59375 C 683.144531 1266.109375 685.242188 1263.671875 687.402344 1261.289062 C 689.5625 1258.90625 691.78125 1256.574219 694.058594 1254.300781 C 696.332031 1252.027344 698.660156 1249.808594 701.042969 1247.648438 C 703.429688 1245.488281 705.863281 1243.386719 708.351562 1241.347656 C 710.835938 1239.304688 713.371094 1237.328125 715.957031 1235.410156 C 718.539062 1233.492188 721.171875 1231.640625 723.84375 1229.855469 C 726.519531 1228.066406 729.238281 1226.347656 731.996094 1224.691406 C 734.757812 1223.039062 737.554688 1221.453125 740.390625 1219.9375 C 743.230469 1218.421875 746.101562 1216.972656 749.011719 1215.597656 C 751.917969 1214.222656 754.859375 1212.917969 757.832031 1211.6875 C 760.804688 1210.457031 763.804688 1209.300781 766.832031 1208.214844 C 769.863281 1207.132812 772.914062 1206.125 775.992188 1205.1875 C 779.074219 1204.253906 782.171875 1203.398438 785.292969 1202.617188 C 788.414062 1201.832031 791.550781 1201.128906 794.707031 1200.5 C 797.863281 1199.875 801.03125 1199.324219 804.214844 1198.851562 C 807.394531 1198.378906 810.585938 1197.984375 813.789062 1197.671875 C 816.992188 1197.355469 820.199219 1197.117188 823.410156 1196.960938 C 826.625 1196.800781 829.839844 1196.722656 833.058594 1196.722656 Z M 833.058594 1196.722656 " fill-opacity="1" fill-rule="nonzero"/></g></svg>